<?xml version="1.0" encoding="UTF-8" standalone="no"?>
<!-- Created with Inkscape (http://www.inkscape.org/) -->

<svg
   xmlns:dc="http://purl.org/dc/elements/1.1/"
   xmlns:cc="http://creativecommons.org/ns#"
   xmlns:rdf="http://www.w3.org/1999/02/22-rdf-syntax-ns#"
   xmlns:svg="http://www.w3.org/2000/svg"
   xmlns="http://www.w3.org/2000/svg"
   xmlns:sodipodi="http://sodipodi.sourceforge.net/DTD/sodipodi-0.dtd"
   xmlns:inkscape="http://www.inkscape.org/namespaces/inkscape"
   width="210mm"
   height="297mm"
   viewBox="0 0 210 297"
   version="1.1"
   id="svg2093"
   inkscape:version="0.92.3 (2405546, 2018-03-11)"
   sodipodi:docname="acai_vetor.svg">
  <defs
     id="defs2087" />
  <sodipodi:namedview
     id="base"
     pagecolor="#ffffff"
     bordercolor="#666666"
     borderopacity="1.0"
     inkscape:pageopacity="0.0"
     inkscape:pageshadow="2"
     inkscape:zoom="0.7"
     inkscape:cx="327.73722"
     inkscape:cy="713.10836"
     inkscape:document-units="mm"
     inkscape:current-layer="layer1"
     showgrid="false"
     inkscape:window-width="1366"
     inkscape:window-height="740"
     inkscape:window-x="0"
     inkscape:window-y="0"
     inkscape:window-maximized="1" />
  <metadata
     id="metadata2090">
    <rdf:RDF>
      <cc:Work
         rdf:about="">
        <dc:format>image/svg+xml</dc:format>
        <dc:type
           rdf:resource="http://purl.org/dc/dcmitype/StillImage" />
        <dc:title></dc:title>
      </cc:Work>
    </rdf:RDF>
  </metadata>
  <g
     inkscape:label="Camada 1"
     inkscape:groupmode="layer"
     id="layer1">
    <rect
       style="fill:#000000;fill-opacity:1;stroke:#e76300;stroke-width:0.29707876;stroke-linecap:round;stroke-linejoin:miter;stroke-miterlimit:4;stroke-dasharray:none;stroke-dashoffset:0;stroke-opacity:1;paint-order:fill markers stroke"
       id="rect2158"
       width="207.51186"
       height="187.10115"
       x="1.5104442"
       y="16.16223"
       ry="4.9237065" />
    <g
       id="g6358"
       transform="matrix(0.69719365,0.21414585,-0.21414585,0.69719365,242.88564,117.18125)"
       style="fill:none;stroke:#edffff;stroke-width:0.94120026;stroke-miterlimit:4;stroke-dasharray:none;stroke-opacity:1"
       inkscape:export-filename="/home/semaias/Documentos/Edição Inkscape/cardápio_pronto2.png"
       inkscape:export-xdpi="96"
       inkscape:export-ydpi="96">
      <g
         style="fill:none;stroke:#edffff;stroke-width:0.94120026;stroke-miterlimit:4;stroke-dasharray:none;stroke-opacity:1"
         transform="translate(180.975,61.383333)"
         id="g5484">
        <path
           inkscape:connector-curvature="0"
           id="path5498"
           d="m -448.5234,52.558089 c -2.10027,-0.437748 -2.77192,-0.725358 -4.61199,-1.974924 -3.13569,-2.129407 -5.4557,-5.664264 -6.25569,-9.531403 -0.22509,-1.08812 -0.45659,-2.025727 -0.51443,-2.083568 -0.0578,-0.05784 -1.04754,-0.490918 -2.19934,-0.962392 -2.41179,-0.987248 -5.33542,-2.601535 -10.6841,-5.899254 -6.911,-4.260955 -9.2603,-5.348258 -11.55585,-5.348258 -1.75449,0 -2.49174,0.635857 -3.19801,2.758191 -0.60541,1.819251 -0.83013,2.026396 -1.96337,1.809766 -0.99087,-0.189415 -1.11205,-0.667956 -0.58918,-2.326677 0.723,-2.293617 1.72745,-3.843946 3.85205,-5.945447 3.0998,-3.066116 7.32557,-5.039696 13.41158,-6.263671 3.55921,-0.715804 11.76672,-0.654132 15.1802,0.114064 1.38245,0.311116 2.76225,0.6403 3.06623,0.731515 0.48805,0.146452 0.6357,-0.06078 1.26263,-1.772092 1.29295,-3.529327 4.47066,-6.9859102 7.79313,-8.4770357 1.08076,-0.4850421 1.12192,-0.5431817 0.77017,-1.08771 -6.0479,-9.3625697 -10.99678,-22.1058763 -12.88216,-33.1714793 -1.13337,-6.651874 -1.68986,-16.281728 -1.01374,-17.542341 0.3369,-0.62815 0.63423,-0.701794 5.90457,-1.462492 l 5.5498,-0.801034 0.19259,-1.541754 c 0.31101,-2.489813 1.2185,-5.398452 2.58415,-8.282606 1.43299,-3.02636 2.39945,-4.549696 4.28576,-6.755233 1.45114,-1.696712 2.10469,-3.037962 3.47234,-7.126084 4.26701,-12.754835 14.69353,-22.053825 31.40203,-28.006204 5.53616,-1.972246 7.79898,-2.981606 10.27485,-4.583246 2.31405,-1.49695 5.4894,-4.48976 6.83074,-6.43807 1.00899,-1.46556 1.01835,-1.50265 1.01643,-4.02613 -0.002,-2.32827 -0.0769,-2.70595 -0.87463,-4.39902 -0.47997,-1.01865 -1.3423,-2.57476 -1.91629,-3.45803 -0.57397,-0.88327 -1.0436,-1.74647 -1.0436,-1.91823 0,-0.53983 1.09632,-0.35546 7.44645,1.2523 16.66953,4.2205 28.74508,8.96413 37.26814,14.64004 6.78023,4.51528 15.61555,13.239099 20.43344,20.175585 1.85336,2.668347 5.06372,8.266708 5.66774,9.883629 0.62191,1.664812 1.36108,2.767627 3.21416,4.795407 l 1.56675,1.714449 1.69073,-1.385241 c 3.48726,-2.857186 7.095,-4.143317 11.16178,-3.97909 l 2.0639,0.08335 3.31282,-7.540625 c 11.31091,-25.745834 19.28333,-43.424024 22.07428,-48.947924 1.66878,-3.30287 2.28673,-3.91245 4.7125,-4.64867 1.58368,-0.48065 2.9129,-0.47651 4.08377,0.0127 1.16529,0.48689 2.3457,2.7184 2.50464,4.73491 0.1065,1.35122 0.0492,1.46576 -15.39293,30.78887 -8.52491,16.187947 -15.49983,29.548577 -15.49983,29.690298 0,0.141724 0.36135,0.82736 0.803,1.523638 0.44166,0.696277 1.11559,2.21846 1.49763,3.382626 0.59523,1.813806 0.69645,2.589888 0.70746,5.423959 0.009,2.371029 -0.12291,3.831598 -0.46673,5.159375 -0.62437,2.411261 -2.43816,6.2353 -3.82423,8.062671 -0.60411,0.796449 -1.09838,1.522476 -1.09838,1.613395 0,0.09092 1.57757,0.244626 3.50573,0.341567 4.47454,0.22497 7.71429,0.59532 8.39511,0.95968 0.77434,0.414417 0.68931,1.054029 -0.79917,6.011678 -5.13516,17.103569 -11.714,32.2806322 -19.30104,44.5266337 -0.67619,1.0914062 -1.311,2.1224716 -1.4107,2.2912546 -0.11077,0.1875367 0.49183,0.7871963 1.54952,1.5419493 2.56544,1.8306544 4.64137,4.7206804 5.66944,7.8927454 0.23027,0.710465 0.4428,0.966058 0.71612,0.861174 0.21377,-0.08203 1.60083,-0.410403 3.08235,-0.729713 3.63009,-0.782389 11.77243,-0.850992 15.36034,-0.129415 8.3172,1.672698 13.9311,5.187336 16.433,10.288039 0.55339,1.128215 1.01452,2.477302 1.03173,3.018425 0.0277,0.872297 -0.055,1.002454 -0.76264,1.19988 -0.43656,0.121799 -0.93003,0.171046 -1.09658,0.10944 -0.16656,-0.06161 -0.56277,-0.893109 -0.88046,-1.847784 -0.73141,-2.197875 -1.44082,-2.801773 -3.28416,-2.795712 -1.97523,0.0065 -4.8467,1.281097 -10.08464,4.476406 -7.04762,4.299278 -9.75708,5.814836 -12.10702,6.772159 -2.36851,0.964885 -2.30305,0.880869 -2.85166,3.659899 -0.35734,1.810078 -1.70134,4.513644 -3.0806,6.196846 -1.08833,1.328166 -3.70802,3.360753 -5.11176,3.966149 -1.38859,0.598869 -4.39615,1.117217 -6.48229,1.117217 -4.45152,0 -7.75672,-1.303206 -10.65445,-4.200933 l -1.69599,-1.695987 -2.04145,1.087734 c -4.54152,2.419821 -9.40909,2.512137 -13.97365,0.265017 -1.9984,-0.983813 -4.71534,-3.40178 -5.90427,-5.254561 -0.47349,-0.737873 -0.9932,-1.285849 -1.15492,-1.217724 -0.16171,0.06813 -1.57804,0.666909 -3.14739,1.330632 -5.72525,2.421361 -12.82389,4.241202 -19.23934,4.932286 -3.58283,0.38595 -11.00085,0.386932 -14.55208,0.0019 -8.03897,-0.871543 -16.99864,-3.426788 -24.97398,-7.122425 -1.29366,-0.599458 -2.43817,-1.089924 -2.54337,-1.089924 -0.10519,0 -0.58648,0.802814 -1.06953,1.784032 -1.17875,2.394371 -4.23664,5.450025 -6.6167,6.611848 -4.65438,2.272035 -9.47582,2.189096 -14.0375,-0.241467 l -2.04212,-1.088091 -1.73389,1.716902 c -2.09907,2.078522 -4.38122,3.345048 -6.88934,3.82338 -2.25727,0.430493 -5.52997,0.415192 -7.69461,-0.03597 z"
           style="fill:none;stroke:#edffff;stroke-width:0.94120026;stroke-miterlimit:4;stroke-dasharray:none;stroke-opacity:1" />
        <path
           inkscape:connector-curvature="0"
           id="path5496"
           d="m -448.34782,52.531932 c -5.24619,-1.148355 -9.91419,-6.18104 -10.91201,-11.764502 -0.33944,-1.899351 -0.35461,-1.924296 -1.41792,-2.331437 -2.34111,-0.8964 -6.86117,-3.326395 -11.39357,-6.125199 -6.36722,-3.931831 -9.6948,-5.558103 -11.75488,-5.744904 -1.23374,-0.111871 -1.74444,-0.04271 -2.2811,0.308922 -0.70363,0.461034 -1.96403,2.805552 -1.96873,3.662093 -0.003,0.591082 -0.59069,0.828281 -1.49143,0.602208 -0.63981,-0.160581 -0.68266,-0.258067 -0.54958,-1.250273 0.26789,-1.99725 1.70563,-4.438195 3.86987,-6.570133 4.40099,-4.335309 10.48546,-6.499672 19.11146,-6.798321 4.75631,-0.164674 8.255,0.139999 11.28581,0.982787 0.97363,0.270745 1.84516,0.410078 1.93672,0.309629 0.0916,-0.100452 0.31427,-0.658887 0.4949,-1.24097 1.05896,-3.412527 4.03882,-6.9691518 7.209,-8.6043218 0.98173,-0.5063728 1.7854,-1.0516155 1.78594,-1.2116514 5.3e-4,-0.1600359 -0.66911,-1.402498 -1.48811,-2.7610329 -5.70467,-9.4627859 -9.99249,-21.1468489 -11.70563,-31.8971959 -1.0771,-6.759104 -1.48869,-16.118887 -0.73627,-16.743338 0.19608,-0.162732 2.76646,-0.644258 5.71196,-1.070057 2.9455,-0.425797 5.40355,-0.822273 5.46233,-0.881055 0.0588,-0.05878 0.2843,-1.12431 0.50116,-2.367838 0.49331,-2.828859 1.71611,-6.3612 3.09606,-8.943719 1.06454,-1.99223 3.30191,-5.196432 4.07853,-5.840968 0.66645,-0.553101 1.9026,-3.213531 2.88113,-6.200727 1.89149,-5.774201 4.88427,-10.708304 8.99345,-14.827208 5.6125,-5.625793 13.03115,-10.112703 21.83554,-13.206465 8.78461,-3.086815 11.98982,-4.917335 15.93739,-9.101965 2.57242,-2.7269 2.98653,-3.62295 2.95094,-6.38517 -0.035,-2.71186 -0.60554,-4.3725 -2.49895,-7.27291 -0.71947,-1.10213 -1.30813,-2.11925 -1.30813,-2.26027 0,-0.43697 1.04053,-0.28632 5.45427,0.78967 12.72378,3.10183 23.34011,6.76245 31.54642,10.87755 7.29378,3.6575 11.48238,6.71754 18.26123,13.340982 6.56687,6.416329 10.8182,12.153392 14.38985,19.418713 1.48229,3.015221 2.25396,4.237376 3.71706,5.886979 1.01553,1.144984 1.95158,2.081789 2.08012,2.081789 0.12854,0 0.73706,-0.456226 1.35227,-1.013833 1.70498,-1.545344 3.44276,-2.640081 5.41531,-3.411453 1.56347,-0.611401 2.18843,-0.702116 4.96367,-0.720486 l 3.17501,-0.02101 1.75023,-3.965041 c 0.96263,-2.180786 4.16312,-9.441929 7.11219,-16.135887 6.16602,-13.995923 13.70761,-30.653413 16.23137,-35.851043 1.55042,-3.19304 1.85731,-3.64861 2.89363,-4.29538 3.47199,-2.16688 6.0587,-1.97846 7.39698,0.53881 0.79991,1.50461 1.32369,3.54232 1.07972,4.20053 -0.0983,0.26515 -7.12252,13.67909 -15.60943,29.80877 -8.4869,16.129674 -15.43074,29.420484 -15.43074,29.53513 0,0.114647 0.42094,0.907481 0.93543,1.761858 3.64857,6.058987 2.70416,15.255547 -2.23809,21.794033 -1.23725,1.636858 -1.27227,1.728089 -0.72624,1.891856 0.31553,0.09464 1.40713,0.184031 2.42578,0.19866 1.94076,0.02787 7.06223,0.446055 8.5296,0.696473 1.51531,0.258601 1.51154,0.662757 -0.0545,5.844558 -2.66912,8.831575 -5.42672,16.497509 -8.60176,23.912203 -2.92349,6.8272796 -8.71102,17.8180659 -12.00059,22.7896926 l -0.46117,0.6969813 1.69676,1.210781 c 2.61172,1.8636881 4.87289,4.9047241 5.73575,7.7140041 0.17878,0.582083 0.40248,1.144182 0.4971,1.249108 0.0946,0.104926 0.76485,0.01024 1.4894,-0.21041 2.34078,-0.712859 6.25578,-1.167871 10.04859,-1.167871 9.46152,0 17.06861,2.653956 21.43401,7.477874 1.64689,1.819871 3.00747,4.336799 3.2263,5.968307 0.13308,0.992206 0.0902,1.089692 -0.54958,1.250273 -1.04312,0.261808 -1.38525,0.01185 -1.71014,-1.249434 -0.40849,-1.585791 -1.2303,-2.827076 -2.09394,-3.162739 -2.15256,-0.836613 -5.37484,0.483462 -13.95664,5.717622 -5.23031,3.190038 -8.62336,5.014219 -11.14921,5.994064 -1.08934,0.422589 -1.0967,0.434715 -1.41732,2.335559 -0.69938,4.146407 -3.88058,8.566689 -7.57114,10.520105 -2.88951,1.529417 -7.11218,2.04592 -10.554,1.290929 -3.00914,-0.660077 -5.16767,-1.918443 -7.48827,-4.365453 l -1.40286,-1.479275 -0.8461,0.508781 c -2.99032,1.798145 -5.43521,2.527768 -8.47027,2.527768 -5.02148,0 -9.66213,-2.512751 -12.47942,-6.75717 l -0.95662,-1.44122 -0.97927,0.424514 c -7.72134,3.347209 -13.67163,5.027879 -21.08761,5.956244 -3.87094,0.484582 -12.78838,0.414621 -16.80104,-0.131813 -8.05252,-1.096565 -17.09857,-3.83083 -23.87204,-7.215576 -0.97863,-0.48903 -1.89488,-0.889146 -2.03609,-0.889146 -0.14122,0 -0.70489,0.863203 -1.25259,1.91823 -1.32426,2.550882 -4.11804,5.370861 -6.45336,6.51389 -4.99712,2.445846 -10.2104,2.171965 -15.13625,-0.795186 l -0.99305,-0.598173 -1.3882,1.452311 c -1.52393,1.5943 -3.36656,2.949514 -4.89686,3.601543 -2.61952,1.116113 -6.64164,1.409872 -9.80952,0.716444 z m 84.09421,-7.115429 c 5.71802,-0.857192 12.88414,-2.932226 17.90295,-5.184016 1.54961,-0.695259 1.71711,-0.843018 1.55533,-1.371997 -0.44786,-1.464471 -0.47009,-5.630518 -0.0392,-7.339883 1.65121,-6.549837 7.05183,-11.111034 13.75301,-11.615353 l 2.10503,-0.158422 0.34794,-1.719792 c 1.10016,-5.43769 5.88604,-10.400448 11.20615,-11.6203121 1.52602,-0.3499036 5.34669,-0.351798 6.85823,-0.00339 0.8964,0.2066158 1.24738,0.1896507 1.50222,-0.072612 0.18289,-0.1882219 1.1662,-1.7295362 2.18512,-3.425145 7.08223,-11.7856291 12.71228,-24.6196509 17.62007,-40.1659299 1.2656,-4.008993 1.36918,-4.508437 0.93507,-4.508437 -0.14742,0 -2.91563,0.480664 -6.15156,1.068139 -27.01219,4.903981 -58.49545,7.055906 -88.8304,6.071669 -22.55053,-0.731666 -45.17878,-2.933816 -66.73678,-6.49473 -3.02896,-0.500319 -5.70072,-0.909672 -5.93723,-0.909672 -0.38532,0 -0.41394,0.4332 -0.27534,4.167188 0.52262,14.079614 5.05595,28.7502307 12.83605,41.5395832 l 1.48881,2.4473958 2.52318,0.00315 c 1.38775,0.00185 3.17263,0.1759718 3.9664,0.3872098 5.42119,1.4427015 9.85926,6.1085632 10.95368,11.5159002 l 0.34808,1.719792 2.22647,0.174982 c 3.98295,0.313028 7.40849,2.009113 10.12865,5.014983 2.56974,2.839647 3.87178,6.278808 3.87178,10.226794 v 2.208712 l 2.57969,1.203804 c 8.82547,4.118385 16.86065,6.329934 26.65677,7.33683 2.23486,0.229711 11.76438,-0.09837 14.41979,-0.496443 z"
           style="fill:none;stroke:#edffff;stroke-width:0.94120026;stroke-miterlimit:4;stroke-dasharray:none;stroke-opacity:1" />
        <path
           inkscape:connector-curvature="0"
           id="path5494"
           d="m -447.78898,52.569849 c -5.51426,-1.25748 -10.20878,-6.09015 -11.19462,-11.524059 -0.1716,-0.945885 -0.38858,-1.87661 -0.48216,-2.068274 -0.0936,-0.191667 -1.2417,-0.799367 -2.55139,-1.35045 -2.43003,-1.02249 -5.50062,-2.743205 -12.89762,-7.227649 -8.80559,-5.3384 -11.8011,-5.465635 -13.17471,-0.559599 -0.2933,1.047575 -0.40739,1.170612 -1.01959,1.09954 -1.06413,-0.12354 -1.03526,-1.209099 0.0955,-3.590166 1.27577,-2.686421 4.15153,-5.545418 7.17192,-7.130137 6.89165,-3.615862 16.85195,-4.673045 25.32472,-2.687953 2.49939,0.585584 3.09873,0.535514 3.09873,-0.258871 0,-0.826883 2.01572,-4.570264 3.19625,-5.935744 1.17389,-1.3577915 3.49741,-3.0579035 5.0868,-3.7219918 0.53755,-0.2246048 0.97736,-0.5392473 0.97736,-0.6992091 0,-0.1599591 -0.72481,-1.5054871 -1.6107,-2.9900615 -2.19134,-3.67224206 -5.4887,-10.4874192 -6.94406,-14.3523736 -3.68526,-9.786844 -5.39994,-18.342795 -5.65659,-28.22544 l -0.14926,-5.747337 0.63187,-0.236292 c 0.34753,-0.129958 2.89406,-0.558421 5.65895,-0.952143 2.7649,-0.393718 5.09959,-0.79671 5.1882,-0.895538 0.0886,-0.09883 0.29721,-1.037492 0.46355,-2.085924 0.80738,-5.088956 3.27174,-10.410902 6.6524,-14.366304 1.56336,-1.829141 2.09067,-2.865636 3.30178,-6.490009 2.53819,-7.595854 6.56264,-13.554438 12.26592,-18.160887 5.16578,-4.172317 12.42406,-8.101502 19.48857,-10.549895 7.48449,-2.593952 10.78407,-4.471382 14.56505,-8.287362 3.22611,-3.25598 3.65366,-4.17313 3.5071,-7.52329 -0.12359,-2.82526 -0.54882,-3.99979 -2.59331,-7.16303 -0.58248,-0.9012 -1.05905,-1.69406 -1.05905,-1.76191 0,-0.69647 14.0684,2.94917 22.36968,5.7968 11.57746,3.97147 19.2574,7.901 25.91678,13.26061 10.10338,8.131407 17.66125,17.589642 22.07129,27.620919 0.56425,1.283447 3.73647,5.138193 4.65308,5.654207 0.23364,0.13153 0.92584,-0.295836 2.00846,-1.240025 3.21982,-2.808097 6.69236,-4.028467 10.71813,-3.766712 l 2.4093,0.156652 0.33233,-0.718013 c 0.18279,-0.394906 2.0316,-4.587544 4.10848,-9.316971 9.18381,-20.913217 16.68802,-37.608047 20.58898,-45.804927 1.85983,-3.90796 2.29269,-4.40122 4.94624,-5.63636 2.03818,-0.94871 2.93758,-0.89302 4.21489,0.26095 1.00451,0.90752 1.57019,2.11429 1.99945,4.26546 0.14903,0.74681 -1.60539,4.21171 -15.45949,30.53175 -8.59518,16.329138 -15.6276,29.776642 -15.6276,29.883346 0,0.106701 0.42171,0.893037 0.93714,1.747414 1.61774,2.681597 2.10557,4.727228 2.10557,8.82945 0,2.995806 -0.0994,3.891912 -0.61627,5.55625 -0.85816,2.763242 -2.1751,5.386287 -3.71945,7.408333 -0.72243,0.945886 -1.23306,1.798029 -1.13473,1.893655 0.0983,0.09562 2.3044,0.313097 4.90237,0.483272 5.37853,0.352306 7.22035,0.597636 7.64041,1.017696 0.2151,0.215098 0.0605,1.091713 -0.578,3.278143 -5.21091,17.842846 -11.45458,32.5352617 -19.50263,45.8930397 -1.06736,1.7715574 -1.94066,3.3386845 -1.94066,3.482504 0,0.1438196 0.77846,0.816991 1.72992,1.4959357 0.95145,0.6789446 2.21887,1.8502546 2.81648,2.6029126 1.16501,1.467268 2.86193,4.750009 2.86193,5.536494 0,0.764992 0.62128,0.81127 3.09873,0.230827 8.47277,-1.985092 18.43307,-0.927909 25.32472,2.687953 2.96193,1.554046 5.8177,4.390398 7.14474,7.096183 1.17462,2.394984 1.20738,3.49836 0.10765,3.625572 -0.64294,0.07437 -0.74023,-0.04101 -1.11548,-1.322917 -0.50818,-1.735986 -1.01601,-2.474462 -2.07996,-3.024658 -1.94383,-1.005192 -4.81836,0.06656 -12.32584,4.59563 -7.17111,4.326152 -9.01288,5.350195 -11.5556,6.425065 -1.16417,0.49212 -2.25043,0.991436 -2.41392,1.109594 -0.16349,0.118157 -0.37718,0.817335 -0.47487,1.553731 -0.419,3.15859 -2.27961,6.655244 -4.69861,8.83014 -1.82158,1.63775 -5.00659,3.182845 -7.38958,3.58479 -4.81051,0.811395 -9.59904,-0.800677 -13.11069,-4.413748 -0.89614,-0.922017 -1.68539,-1.676397 -1.75388,-1.676397 -0.0685,0 -0.82358,0.421042 -1.67796,0.935651 -3.14806,1.896145 -7.4288,2.570031 -10.94611,1.723173 -3.45754,-0.832463 -7.10329,-3.413707 -9.00312,-6.374336 -0.46289,-0.721365 -1.00247,-1.311571 -1.19906,-1.311571 -0.19658,0 -1.40456,0.460779 -2.68439,1.023956 -11.85282,5.215689 -26.21285,6.856216 -39.36864,4.49758 -6.47716,-1.161259 -12.21879,-2.954792 -18.7285,-5.850284 -2.29703,-1.021709 -4.21545,-1.812197 -4.26316,-1.75664 -0.0477,0.05556 -0.47905,0.93445 -0.95854,1.953096 -1.107,2.351723 -3.93068,5.264618 -6.22613,6.42285 -4.84725,2.445801 -10.09623,2.327164 -14.50416,-0.327824 -0.85438,-0.514609 -1.61446,-0.935651 -1.68907,-0.935651 -0.0746,0 -0.87548,0.758256 -1.77971,1.685012 -1.85426,1.900449 -3.37714,2.878183 -5.92639,3.80492 -2.20837,0.802817 -5.57721,1.0067 -7.89617,0.477877 z m 83.40308,-6.863969 c 4.15271,-0.620963 7.65022,-1.441624 11.37708,-2.669545 3.0002,-0.988496 8.15625,-3.047137 8.50479,-3.395678 0.0662,-0.06625 -0.0201,-0.927563 -0.1919,-1.914044 -0.89823,-5.158028 1.01681,-10.725086 4.80472,-13.967394 2.47767,-2.120799 6.40449,-3.60345 9.56537,-3.611602 1.44071,-0.0037 1.52368,-0.04019 1.66403,-0.731515 1.04048,-5.125116 2.82122,-8.040565 6.40246,-10.4821668 0.98685,-0.6728168 2.50866,-1.4808914 3.38178,-1.7957244 1.95721,-0.7057363 5.84649,-0.9467718 8.10552,-0.5023353 1.90435,0.374658 1.43028,0.8401368 4.70133,-4.6161272 5.20994,-8.6904406 9.58493,-18.0279143 13.69847,-29.2364583 1.96553,-5.355669 4.89641,-14.591673 4.69448,-14.793606 -0.0757,-0.07573 -1.29261,0.06588 -2.70416,0.314696 -13.62023,2.400826 -19.44893,3.262606 -29.81856,4.408704 -13.08147,1.445824 -21.52009,1.999753 -37.21804,2.443068 -28.3118,0.799531 -60.2603,-1.383414 -90.04654,-6.152611 -3.63802,-0.582498 -7.19875,-1.132419 -7.91274,-1.222049 l -1.29815,-0.162962 0.16234,4.605816 c 0.30367,8.615116 2.04412,17.185029 5.26096,25.904777 1.56068,4.2304471 5.35748,12.07885392 7.5518,15.610417 l 1.56178,2.5135417 3.15784,0.1532043 c 3.74389,0.1816365 5.47413,0.7189047 8.11627,2.520233 3.52149,2.400837 5.39241,5.46091 6.41331,10.489583 0.14035,0.691325 0.22332,0.7278 1.66403,0.731515 5.15982,0.01331 10.40402,3.215119 12.82232,7.828579 1.21526,2.31839 1.78184,4.635778 1.78696,7.308808 0.005,2.432441 -0.22275,2.215301 4.55731,4.351644 7.40376,3.308946 15.56559,5.538433 23.49243,6.417196 3.08647,0.342165 12.5222,0.133604 15.74271,-0.347964 z"
           style="fill:none;stroke:#edffff;stroke-width:0.94120026;stroke-miterlimit:4;stroke-dasharray:none;stroke-opacity:1" />
        <path
           inkscape:connector-curvature="0"
           id="path5492"
           d="m -447.78898,52.569849 c -5.51426,-1.25748 -10.20878,-6.09015 -11.19462,-11.524059 -0.1716,-0.945885 -0.38858,-1.87661 -0.48216,-2.068274 -0.0936,-0.191667 -1.2417,-0.799367 -2.55139,-1.35045 -2.43003,-1.02249 -5.50062,-2.743205 -12.89762,-7.227649 -8.80559,-5.3384 -11.8011,-5.465635 -13.17471,-0.559599 -0.2933,1.047575 -0.40739,1.170612 -1.01959,1.09954 -1.06413,-0.12354 -1.03526,-1.209099 0.0955,-3.590166 1.27577,-2.686421 4.15153,-5.545418 7.17192,-7.130137 6.89165,-3.615862 16.85195,-4.673045 25.32472,-2.687953 2.49939,0.585584 3.09873,0.535514 3.09873,-0.258871 0,-0.826883 2.01572,-4.570264 3.19625,-5.935744 1.17389,-1.3577915 3.49741,-3.0579035 5.0868,-3.7219918 0.53755,-0.2246048 0.97736,-0.5392473 0.97736,-0.6992091 0,-0.1599591 -0.72481,-1.5054871 -1.6107,-2.9900615 -2.19134,-3.67224206 -5.4887,-10.4874192 -6.94406,-14.3523736 -3.68526,-9.786844 -5.39994,-18.342795 -5.65659,-28.22544 l -0.14926,-5.747337 0.63187,-0.236292 c 0.34753,-0.129958 2.89406,-0.558421 5.65895,-0.952143 2.7649,-0.393718 5.09959,-0.79671 5.1882,-0.895538 0.0886,-0.09883 0.29721,-1.037492 0.46355,-2.085924 0.80738,-5.088956 3.27174,-10.410902 6.6524,-14.366304 1.56336,-1.829141 2.09067,-2.865636 3.30178,-6.490009 2.53819,-7.595854 6.56264,-13.554438 12.26592,-18.160887 5.16578,-4.172317 12.42406,-8.101502 19.48857,-10.549895 7.48449,-2.593952 10.78407,-4.471382 14.56505,-8.287362 3.22611,-3.25598 3.65366,-4.17313 3.5071,-7.52329 -0.12359,-2.82526 -0.54882,-3.99979 -2.59331,-7.16303 -0.58248,-0.9012 -1.05905,-1.69406 -1.05905,-1.76191 0,-0.69647 14.0684,2.94917 22.36968,5.7968 11.57746,3.97147 19.2574,7.901 25.91678,13.26061 10.10338,8.131407 17.66125,17.589642 22.07129,27.620919 0.56425,1.283447 3.73647,5.138193 4.65308,5.654207 0.23364,0.13153 0.92584,-0.295836 2.00846,-1.240025 3.21982,-2.808097 6.69236,-4.028467 10.71813,-3.766712 l 2.4093,0.156652 0.33233,-0.718013 c 0.18279,-0.394906 2.0316,-4.587544 4.10848,-9.316971 9.18381,-20.913217 16.68802,-37.608047 20.58898,-45.804927 1.85983,-3.90796 2.29269,-4.40122 4.94624,-5.63636 2.03818,-0.94871 2.93758,-0.89302 4.21489,0.26095 1.00451,0.90752 1.57019,2.11429 1.99945,4.26546 0.14903,0.74681 -1.60539,4.21171 -15.45949,30.53175 -8.59518,16.329138 -15.6276,29.776642 -15.6276,29.883346 0,0.106701 0.42171,0.893037 0.93714,1.747414 1.61774,2.681597 2.10557,4.727228 2.10557,8.82945 0,2.995806 -0.0994,3.891912 -0.61627,5.55625 -0.85816,2.763242 -2.1751,5.386287 -3.71945,7.408333 -0.72243,0.945886 -1.23306,1.798029 -1.13473,1.893655 0.0983,0.09562 2.3044,0.313097 4.90237,0.483272 5.37853,0.352306 7.22035,0.597636 7.64041,1.017696 0.2151,0.215098 0.0605,1.091713 -0.578,3.278143 -5.21091,17.842846 -11.45458,32.5352617 -19.50263,45.8930397 -1.06736,1.7715574 -1.94066,3.3386845 -1.94066,3.482504 0,0.1438196 0.77846,0.816991 1.72992,1.4959357 0.95145,0.6789446 2.21887,1.8502546 2.81648,2.6029126 1.16501,1.467268 2.86193,4.750009 2.86193,5.536494 0,0.764992 0.62128,0.81127 3.09873,0.230827 8.47277,-1.985092 18.43307,-0.927909 25.32472,2.687953 2.96193,1.554046 5.8177,4.390398 7.14474,7.096183 1.17462,2.394984 1.20738,3.49836 0.10765,3.625572 -0.64294,0.07437 -0.74023,-0.04101 -1.11548,-1.322917 -0.50818,-1.735986 -1.01601,-2.474462 -2.07996,-3.024658 -1.94383,-1.005192 -4.81836,0.06656 -12.32584,4.59563 -7.17111,4.326152 -9.01288,5.350195 -11.5556,6.425065 -1.16417,0.49212 -2.25043,0.991436 -2.41392,1.109594 -0.16349,0.118157 -0.37718,0.817335 -0.47487,1.553731 -0.419,3.15859 -2.27961,6.655244 -4.69861,8.83014 -1.82158,1.63775 -5.00659,3.182845 -7.38958,3.58479 -4.81051,0.811395 -9.59904,-0.800677 -13.11069,-4.413748 -0.89614,-0.922017 -1.68539,-1.676397 -1.75388,-1.676397 -0.0685,0 -0.82358,0.421042 -1.67796,0.935651 -3.14806,1.896145 -7.4288,2.570031 -10.94611,1.723173 -3.45754,-0.832463 -7.10329,-3.413707 -9.00312,-6.374336 -0.46289,-0.721365 -1.00247,-1.311571 -1.19906,-1.311571 -0.19658,0 -1.40456,0.460779 -2.68439,1.023956 -11.85282,5.215689 -26.21285,6.856216 -39.36864,4.49758 -6.47716,-1.161259 -12.21879,-2.954792 -18.7285,-5.850284 -2.29703,-1.021709 -4.21545,-1.812197 -4.26316,-1.75664 -0.0477,0.05556 -0.47905,0.93445 -0.95854,1.953096 -1.107,2.351723 -3.93068,5.264618 -6.22613,6.42285 -4.84725,2.445801 -10.09623,2.327164 -14.50416,-0.327824 -0.85438,-0.514609 -1.61446,-0.935651 -1.68907,-0.935651 -0.0746,0 -0.87548,0.758256 -1.77971,1.685012 -1.85426,1.900449 -3.37714,2.878183 -5.92639,3.80492 -2.20837,0.802817 -5.57721,1.0067 -7.89617,0.477877 z m 5.36855,-2.021228 c 2.20091,-0.402 4.59455,-1.610527 6.32836,-3.195135 2.06854,-1.89053 2.13686,-2.079443 1.18514,-3.277031 -2.91577,-3.669023 -3.83037,-8.961322 -2.36728,-13.698255 0.30214,-0.97822 0.47428,-1.900047 0.38253,-2.048507 -0.31855,-0.515427 -2.20619,-1.554721 -3.79734,-2.090743 -2.11315,-0.711869 -5.45917,-0.728308 -7.67802,-0.03772 -6.1443,1.912321 -9.92159,8.533855 -8.46817,14.844564 1.03675,4.501518 5.00873,8.397584 9.57193,9.388975 2.08126,0.45217 2.8869,0.471112 4.84285,0.113856 z m 136.44654,-0.101995 c 2.5152,-0.532982 4.69484,-1.778508 6.51226,-3.721338 2.32939,-2.490121 3.46106,-5.253945 3.46738,-8.46818 0.0108,-5.479841 -3.59884,-10.451986 -8.75218,-12.055882 -2.23515,-0.695659 -5.56137,-0.674275 -7.72334,0.04965 -1.78942,0.599178 -3.89507,1.804644 -3.89037,2.227205 0.002,0.145521 0.25728,1.038489 0.56815,1.984375 0.41382,1.259178 0.57168,2.428428 0.58938,4.365625 0.0308,3.364285 -0.64998,5.68081 -2.463,8.381648 -0.94768,1.411734 -1.23376,2.046054 -1.065,2.361377 0.4359,0.814485 3.23526,3.176651 4.56033,3.848116 1.41613,0.717608 3.96149,1.363578 5.47917,1.390523 0.50932,0.009 1.73207,-0.154363 2.71722,-0.36312 z M -417.6057,46.267771 c 8.10275,-3.855321 9.69563,-14.70297 3.03796,-20.68879 -5.35548,-4.81503 -13.92168,-4.044733 -18.25274,1.64134 -1.71428,2.250604 -2.39417,4.155094 -2.54466,7.128082 -0.19632,3.878215 0.94779,6.875684 3.64851,9.558782 2.54751,2.530877 5.22415,3.519683 9.25469,3.418858 2.59052,-0.0648 2.91846,-0.136268 4.85624,-1.058272 z m 90.94105,0.701958 c 2.1767,-0.645343 3.37783,-1.346938 5.07128,-2.96222 2.66429,-2.541296 3.90643,-5.424455 3.90643,-9.067289 0,-6.380747 -4.4587,-11.488841 -10.84792,-12.427892 -3.79554,-0.557847 -7.6568,0.756947 -10.47341,3.566287 -6.77205,6.754577 -3.91399,18.020088 5.31403,20.946189 1.52457,0.483423 5.31338,0.45374 7.02959,-0.05508 z M -364.3859,45.70588 c 4.15271,-0.620963 7.65022,-1.441624 11.37708,-2.669545 3.0002,-0.988496 8.15625,-3.047137 8.50479,-3.395678 0.0662,-0.06625 -0.0201,-0.927563 -0.1919,-1.914044 -0.89823,-5.158028 1.01681,-10.725086 4.80472,-13.967394 2.47767,-2.120799 6.40449,-3.60345 9.56537,-3.611602 1.44071,-0.0037 1.52368,-0.04019 1.66403,-0.731515 1.04048,-5.125116 2.82122,-8.040565 6.40246,-10.4821668 0.98685,-0.6728168 2.50866,-1.4808914 3.38178,-1.7957244 1.95721,-0.7057363 5.84649,-0.9467718 8.10552,-0.5023353 1.90435,0.374658 1.43028,0.8401368 4.70133,-4.6161272 5.20994,-8.6904406 9.58493,-18.0279143 13.69847,-29.2364583 1.96553,-5.355669 4.89641,-14.591673 4.69448,-14.793606 -0.0757,-0.07573 -1.29261,0.06588 -2.70416,0.314696 -13.62023,2.400826 -19.44893,3.262606 -29.81856,4.408704 -13.08147,1.445824 -21.52009,1.999753 -37.21804,2.443068 -28.3118,0.799531 -60.2603,-1.383414 -90.04654,-6.152611 -3.63802,-0.582498 -7.19875,-1.132419 -7.91274,-1.222049 l -1.29815,-0.162962 0.16234,4.605816 c 0.30367,8.615116 2.04412,17.185029 5.26096,25.904777 1.56068,4.2304471 5.35748,12.07885392 7.5518,15.610417 l 1.56178,2.5135417 3.15784,0.1532043 c 3.74389,0.1816365 5.47413,0.7189047 8.11627,2.520233 3.52149,2.400837 5.39241,5.46091 6.41331,10.489583 0.14035,0.691325 0.22332,0.7278 1.66403,0.731515 5.15982,0.01331 10.40402,3.215119 12.82232,7.828579 1.21526,2.31839 1.78184,4.635778 1.78696,7.308808 0.005,2.432441 -0.22275,2.215301 4.55731,4.351644 7.40376,3.308946 15.56559,5.538433 23.49243,6.417196 3.08647,0.342165 12.5222,0.133604 15.74271,-0.347964 z m -69.25639,-21.285885 c 1.31296,-1.328745 2.37538,-2.101554 4.00109,-2.910417 1.2174,-0.605708 2.37825,-1.101288 2.57969,-1.101288 0.48457,0 0.46433,-0.896244 -0.0602,-2.663957 -1.3219,-4.455356 -4.52452,-7.637873 -8.81255,-8.7572403 -4.36674,-1.1399123 -8.49771,-0.09094 -11.79732,2.9956783 -2.81084,2.6294 -4.32001,6.429815 -3.99369,10.056961 0.23985,2.666005 0.15854,2.597534 2.25117,1.895687 3.87276,-1.29888 7.71591,-1.060495 11.36686,0.705061 1.14959,0.555932 2.17053,1.140804 2.26874,1.299716 0.0982,0.158908 0.23031,0.288927 0.29355,0.288927 0.0632,0 0.91941,-0.814107 1.90261,-1.809128 z m 118.93247,0.03264 c 3.14163,-1.515568 7.19287,-1.737172 10.88427,-0.595366 2.13779,0.66125 2.16807,0.639681 2.41618,-1.720725 0.61903,-5.889295 -3.56679,-11.673115 -9.58184,-13.239835 -6.483,-1.6886079 -13.29643,2.38044 -15.06679,8.998037 -0.45587,1.704049 -0.45393,2.513542 0.006,2.513542 0.20143,0 1.35499,0.494887 2.56348,1.099751 1.59533,0.798494 2.67279,1.584055 3.93324,2.867697 l 1.736,1.767946 0.87692,-0.518549 c 0.48231,-0.2852 1.48693,-0.812824 2.2325,-1.172498 z m -29.17087,-61.960575 c 12.7159,-0.830495 22.96086,-1.803112 32.67604,-3.102126 4.81922,-0.644379 10.14457,-1.557811 10.36453,-1.77778 0.21119,-0.211191 -2.32217,-6.353966 -3.88326,-9.415942 -2.95474,-5.795536 -7.64434,-12.264908 -12.74131,-17.576837 l -2.47121,-2.575441 -3.43959,-0.655997 c -18.36865,-3.503274 -31.66012,-4.350597 -40.7903,-2.600362 -1.31404,0.251897 -2.57041,0.38844 -2.79194,0.303429 -0.57015,-0.218786 -0.85118,-1.519105 -0.42014,-1.943978 0.19037,-0.18765 1.95348,-0.758497 3.91801,-1.26855 12.63455,-3.280325 23.51731,-3.886023 35.54278,-1.978186 1.86775,0.296314 3.46193,0.472733 3.54263,0.392038 0.25216,-0.252164 -2.79737,-5.117306 -5.30686,-8.466421 -4.10379,-5.476848 -12.34802,-13.307417 -17.90355,-17.005217 -5.45237,-3.62914 -12.24202,-6.79238 -20.94856,-9.75973 -6.11641,-2.08459 -16.99273,-5.12875 -17.28391,-4.83756 -0.0591,0.0591 0.19562,0.93649 0.566,1.9498 0.99154,2.71276 1.01346,6.28857 0.051,8.32467 -1.20363,2.54639 -4.53833,6.00984 -8.13967,8.45395 -2.42138,1.643308 -5.44792,3.036953 -10.33968,4.76115 -10.33587,3.643085 -18.915,8.955543 -23.94745,14.828978 -2.08363,2.431838 -4.16711,5.766046 -5.42213,8.6771 -1.09876,2.548597 -1.33028,3.383592 -0.9221,3.325622 6.03316,-0.856805 27.18093,-1.016246 35.85104,-0.270293 11.52812,0.991852 21.94606,2.662656 32.54375,5.21929 5.55536,1.340199 11.9405,3.139414 12.36927,3.485436 0.46598,0.376033 0.41074,1.106982 -0.13229,1.750636 l -0.46302,0.548823 -2.77812,-0.799327 c -9.30339,-2.67679 -20.93967,-4.792504 -32.14688,-5.844966 -5.67586,-0.533017 -24.11459,-0.455753 -30.1625,0.126388 -4.81465,0.463437 -17.1693,2.381486 -18.38854,2.854807 -0.93765,0.364003 -3.31416,3.65805 -4.661,6.460532 -1.69679,3.530664 -2.50503,6.582984 -2.67607,10.106166 -0.1436,2.957726 -0.14283,2.96264 0.48777,3.103329 0.34737,0.0775 3.19144,0.499224 6.32013,0.937157 15.24003,2.133201 30.09127,3.540691 44.71459,4.237718 3.27422,0.156067 6.72703,0.32377 7.67291,0.372673 3.86173,0.199655 37.4881,-0.07637 41.53959,-0.340979 z"
           style="fill:none;stroke:#edffff;stroke-width:0.94120026;stroke-miterlimit:4;stroke-dasharray:none;stroke-opacity:1" />
        <path
           inkscape:connector-curvature="0"
           id="path5490"
           d="m -446.40674,52.783826 c -0.43656,-0.06552 -0.97234,-0.190542 -1.19062,-0.277836 -0.21828,-0.0873 -1.12467,-0.422151 -2.0142,-0.744125 -3.14219,-1.137346 -5.83459,-3.404079 -7.54299,-6.35045 -0.90972,-1.568945 -1.81989,-4.341183 -1.81989,-5.543113 0,-0.928085 -0.53026,-1.552046 -1.5875,-1.868033 -1.76725,-0.528193 -6.04674,-2.819201 -12.2177,-6.540698 -9.28402,-5.59888 -11.85964,-6.425211 -13.99083,-4.488659 -0.43467,0.39497 -1.01044,1.362982 -1.2899,2.168628 -0.4826,1.391288 -1.10828,1.940788 -1.6099,1.413875 -0.3475,-0.36503 0.64129,-3.072609 1.7102,-4.68299 4.9508,-7.458702 19.24445,-11.114299 31.58295,-8.077332 1.21024,0.297886 2.35097,0.483851 2.53495,0.413252 0.18397,-0.0706 0.6078,-0.883964 0.94183,-1.807479 0.33403,-0.923515 0.91787,-2.214899 1.29743,-2.869743 1.05751,-1.824543 3.68441,-4.2557432 5.70823,-5.2829801 0.98739,-0.5011737 1.85112,-1.0568014 1.9194,-1.2347257 0.0683,-0.1779244 -0.65761,-1.6404828 -1.61308,-3.2501284 -3.59741,-6.0604321 -6.04422,-11.4811916 -8.36971,-18.5425818 -2.81281,-8.541176 -3.93664,-14.966874 -4.14815,-23.717872 -0.13457,-5.567839 -0.11696,-5.865844 0.35499,-6.006558 0.27312,-0.08143 2.75877,-0.466235 5.52366,-0.855117 2.7649,-0.388882 5.15965,-0.812401 5.32167,-0.941152 0.16202,-0.128754 0.36818,-0.858097 0.45814,-1.620761 0.58181,-4.932815 3.12783,-10.640512 6.59449,-14.783633 1.67246,-1.998814 2.37657,-3.409583 3.7496,-7.512815 3.33202,-9.957607 9.64136,-16.95636 20.91777,-23.203437 3.27673,-1.815291 5.19574,-2.643857 10.58333,-4.569516 7.80701,-2.790426 10.51684,-4.348566 14.43357,-8.299276 3.33643,-3.36538 3.78719,-4.29587 3.64539,-7.52525 -0.11649,-2.65313 -0.73466,-4.35315 -2.70021,-7.4258 -1.18731,-1.85607 -1.30136,-1.84476 4.42303,-0.43864 19.44395,4.77613 33.21479,10.58039 42.24301,17.80498 3.73928,2.99225 9.66673,8.732993 12.49469,12.101097 3.64773,4.344458 8.09571,11.533462 9.97416,16.120631 0.41484,1.013029 3.71839,4.88233 4.54715,5.325867 0.45305,0.242466 0.7406,0.108645 1.90616,-0.887098 1.97651,-1.688526 3.71346,-2.728502 5.70954,-3.418512 1.47121,-0.508571 2.23869,-0.598125 4.83926,-0.564668 l 3.09075,0.03976 1.63954,-3.743931 c 10.23872,-23.380376 19.5957,-44.256756 23.33391,-52.060376 l 1.97892,-4.13104 1.9233,-0.96219 c 1.05782,-0.52921 1.81801,-0.97243 1.68932,-0.98493 -0.12869,-0.0125 0.11767,-0.12776 0.54748,-0.25611 0.82515,-0.24641 2.07792,-0.0667 1.87083,0.26838 -0.0672,0.10872 0.15655,0.32466 0.49719,0.47987 0.7967,0.363 1.79664,2.43142 1.95074,4.03519 0.11767,1.22461 -0.20766,1.87411 -15.38845,30.72213 -8.52976,16.209093 -15.50865,29.722774 -15.50865,30.030402 0,0.307631 0.16093,0.692889 0.35762,0.856129 0.19669,0.163239 0.73565,1.116943 1.19769,2.119338 2.90731,6.307498 1.70399,14.364481 -3.05844,20.47816 -0.65575,0.841804 -1.13424,1.681756 -1.06333,1.866559 0.0917,0.239049 1.60682,0.431422 5.25031,0.666636 5.02486,0.324398 7.2233,0.595842 7.56103,0.933569 0.33772,0.337723 -3.33441,12.141177 -6.05931,19.476646 -3.62206,9.750642 -9.01003,21.0976372 -13.65491,28.7570151 -1.3403,2.2101625 -2.43184,4.1746938 -2.42563,4.365625 0.006,0.190934 0.8439,0.9176729 1.86155,1.6149744 2.34262,1.6051875 4.20394,4.0621165 5.20264,6.8674275 0.49492,1.390239 0.86511,2.050055 1.15043,2.05052 0.23139,2.65e-4 1.30877,-0.226441 2.39419,-0.504044 4.55727,-1.165553 10.97216,-1.331693 16.20234,-0.419627 7.85339,1.369516 13.87136,5.074262 16.14768,9.940727 1.20056,2.566654 1.29775,3.286757 0.4436,3.286757 -0.52416,0 -0.70908,-0.214593 -1.02595,-1.190625 -1.60589,-4.946475 -4.82857,-4.513151 -15.47638,2.080956 -5.42637,3.360508 -8.36757,4.989148 -10.83133,5.997668 -1.16001,0.474837 -2.24389,0.99813 -2.40863,1.162873 -0.16475,0.164742 -0.44285,1.150096 -0.61801,2.189675 -0.82088,4.871826 -4.54304,9.280105 -9.21696,10.915955 -0.7276,0.254656 -1.60767,0.59863 -1.95571,0.764384 -0.84888,0.404272 -5.75692,0.370234 -6.16994,-0.04279 -0.173,-0.173004 -0.51508,-0.314553 -0.76016,-0.314553 -0.24509,0 -1.41509,-0.485233 -2.59999,-1.078296 -1.56922,-0.785424 -2.64416,-1.575922 -3.95766,-2.910417 -0.99181,-1.007665 -1.86717,-1.83212 -1.94525,-1.83212 -0.0781,0 -0.82608,0.411951 -1.66222,0.915447 -2.56654,1.545495 -4.63741,2.109992 -7.67198,2.091307 -5.11877,-0.03151 -9.16087,-2.21569 -12.09963,-6.538116 -0.85037,-1.250755 -1.16055,-1.521381 -1.61982,-1.41327 -0.31243,0.07354 -2.1754,0.794139 -4.13993,1.601325 -7.79591,3.203183 -14.65513,4.599424 -23.8125,4.847193 -11.63251,0.31474 -22.38601,-2.026129 -33.83738,-7.365862 -1.51186,-0.704975 -2.84301,-1.281774 -2.9581,-1.281774 -0.11509,0 -0.63399,0.883049 -1.1531,1.96233 -1.68312,3.499347 -4.70935,6.187532 -8.45879,7.513902 -1.52168,0.538297 -2.38233,0.665612 -4.52492,0.669364 -3.46944,0.0061 -5.44935,-0.611743 -8.78444,-2.741134 -0.54947,-0.350821 -0.6873,-0.265205 -2.44033,1.515851 -1.36889,1.390782 -2.42506,2.171515 -4.01234,2.965974 -1.1849,0.593063 -2.3549,1.078296 -2.59999,1.078296 -0.24508,0 -0.55872,0.111974 -0.69696,0.24883 -0.28979,0.286875 -3.8367,0.553363 -5.01386,0.376706 z m 3.98631,-2.235205 c 2.20091,-0.402 4.59455,-1.610527 6.32836,-3.195135 2.06854,-1.89053 2.13686,-2.079443 1.18514,-3.277031 -2.91577,-3.669023 -3.83037,-8.961322 -2.36728,-13.698255 0.30214,-0.97822 0.47428,-1.900047 0.38253,-2.048507 -0.31855,-0.515427 -2.20619,-1.554721 -3.79734,-2.090743 -2.11315,-0.711869 -5.45917,-0.728308 -7.67802,-0.03772 -6.1443,1.912321 -9.92159,8.533855 -8.46817,14.844564 1.03675,4.501518 5.00873,8.397584 9.57193,9.388975 2.08126,0.45217 2.8869,0.471112 4.84285,0.113856 z m 136.44654,-0.101995 c 2.5152,-0.532982 4.69484,-1.778508 6.51226,-3.721338 2.32939,-2.490121 3.46106,-5.253945 3.46738,-8.46818 0.0108,-5.479841 -3.59884,-10.451986 -8.75218,-12.055882 -2.23515,-0.695659 -5.56137,-0.674275 -7.72334,0.04965 -1.78942,0.599178 -3.89507,1.804644 -3.89037,2.227205 0.002,0.145521 0.25728,1.038489 0.56815,1.984375 0.41382,1.259178 0.57168,2.428428 0.58938,4.365625 0.0308,3.364285 -0.64998,5.68081 -2.463,8.381648 -0.94768,1.411734 -1.23376,2.046054 -1.065,2.361377 0.4359,0.814485 3.23526,3.176651 4.56033,3.848116 1.41613,0.717608 3.96149,1.363578 5.47917,1.390523 0.50932,0.009 1.73207,-0.154363 2.71722,-0.36312 z M -417.6057,46.267771 c 8.10275,-3.855321 9.69563,-14.70297 3.03796,-20.68879 -5.35548,-4.81503 -13.92168,-4.044733 -18.25274,1.64134 -1.71428,2.250604 -2.39417,4.155094 -2.54466,7.128082 -0.19632,3.878215 0.94779,6.875684 3.64851,9.558782 2.54751,2.530877 5.22415,3.519683 9.25469,3.418858 2.59052,-0.0648 2.91846,-0.136268 4.85624,-1.058272 z m 90.94105,0.701958 c 2.1767,-0.645343 3.37783,-1.346938 5.07128,-2.96222 2.66429,-2.541296 3.90643,-5.424455 3.90643,-9.067289 0,-6.380747 -4.4587,-11.488841 -10.84792,-12.427892 -3.79554,-0.557847 -7.6568,0.756947 -10.47341,3.566287 -6.77205,6.754577 -3.91399,18.020088 5.31403,20.946189 1.52457,0.483423 5.31338,0.45374 7.02959,-0.05508 z m -37.72125,-1.000117 c 4.1471,-0.618789 7.6474,-1.439847 11.37708,-2.668694 3.51073,-1.156705 8.20448,-3.077736 8.67872,-3.551967 0.17476,-0.174763 0.16114,-0.772364 -0.0405,-1.776347 -0.16712,-0.832143 -0.30385,-2.301552 -0.30385,-3.265352 0,-7.627424 6.66769,-14.275128 14.33803,-14.295051 0.82815,-0.0021 1.5845,-0.131355 1.68077,-0.287118 0.0963,-0.155766 0.34065,-1.0785 0.54308,-2.050521 1.10998,-5.330005 5.69498,-9.9852932 10.99619,-11.1647554 1.45844,-0.3244903 5.79103,-0.2355268 7.40391,0.1520269 0.63752,0.1531885 0.80644,7.938e-4 1.93663,-1.7462235 3.72394,-5.7566216 9.28182,-16.541176 12.33394,-23.932862 3.72304,-9.016523 8.40521,-22.960697 7.91007,-23.557306 -0.19066,-0.229725 -1.4336,-0.08543 -4.93954,0.573436 -16.66309,3.131469 -34.60581,5.153171 -55.24579,6.224842 -8.18536,0.425 -34.09003,0.423532 -42.33334,-0.0024 -22.15829,-1.144937 -42.98064,-3.370009 -62.33876,-6.661523 -1.68966,-0.287298 -3.40417,-0.522359 -3.81003,-0.522359 h -0.73792 l 0.16326,4.696354 c 0.32213,9.266282 2.3103,18.598414 5.88534,27.624751 2.17741,5.4975764 6.14493,13.221473 8.23488,16.0314988 l 0.63954,0.8598959 h 2.65186 c 4.46751,0 7.87111,1.4768195 10.86156,4.7128083 1.75498,1.899095 3.0132,4.299331 3.4241,6.531983 0.43807,2.38034 0.41601,2.3601 2.77468,2.545094 4.12816,0.323778 7.01475,1.640038 9.70282,4.424399 2.84088,2.942632 4.14852,6.263746 4.15622,10.555827 l 0.004,2.179487 1.79502,0.903957 c 8.25968,4.159509 18.54705,7.091556 27.83831,7.93432 2.42593,0.220043 11.86012,-0.08629 14.41979,-0.46822 z m -69.25639,-21.549617 c 1.31296,-1.328745 2.37538,-2.101554 4.00109,-2.910417 1.2174,-0.605708 2.37825,-1.101288 2.57969,-1.101288 0.48457,0 0.46433,-0.896244 -0.0602,-2.663957 -1.3219,-4.455356 -4.52452,-7.637873 -8.81255,-8.7572403 -4.36674,-1.1399123 -8.49771,-0.09094 -11.79732,2.9956783 -2.81084,2.6294 -4.32001,6.429815 -3.99369,10.056961 0.23985,2.666005 0.15854,2.597534 2.25117,1.895687 3.87276,-1.29888 7.71591,-1.060495 11.36686,0.705061 1.14959,0.555932 2.17053,1.140804 2.26874,1.299716 0.0982,0.158908 0.23031,0.288927 0.29355,0.288927 0.0632,0 0.91941,-0.814107 1.90261,-1.809128 z m 118.93247,0.03264 c 3.14163,-1.515568 7.19287,-1.737172 10.88427,-0.595366 2.13779,0.66125 2.16807,0.639681 2.41618,-1.720725 0.61903,-5.889295 -3.56679,-11.673115 -9.58184,-13.239835 -6.483,-1.6886079 -13.29643,2.38044 -15.06679,8.998037 -0.45587,1.704049 -0.45393,2.513542 0.006,2.513542 0.20143,0 1.35499,0.494887 2.56348,1.099751 1.59533,0.798494 2.67279,1.584055 3.93324,2.867697 l 1.736,1.767946 0.87692,-0.518549 c 0.48231,-0.2852 1.48693,-0.812824 2.2325,-1.172498 z m -29.17087,-61.960575 c 12.7159,-0.830495 22.96086,-1.803112 32.67604,-3.102126 4.81922,-0.644379 10.14457,-1.557811 10.36453,-1.77778 0.21119,-0.211191 -2.32217,-6.353966 -3.88326,-9.415942 -2.95474,-5.795536 -7.64434,-12.264908 -12.74131,-17.576837 l -2.47121,-2.575441 -3.43959,-0.655997 c -18.36865,-3.503274 -31.66012,-4.350597 -40.7903,-2.600362 -1.31404,0.251897 -2.57041,0.38844 -2.79194,0.303429 -0.57015,-0.218786 -0.85118,-1.519105 -0.42014,-1.943978 0.19037,-0.18765 1.95348,-0.758497 3.91801,-1.26855 12.63455,-3.280325 23.51731,-3.886023 35.54278,-1.978186 1.86775,0.296314 3.46193,0.472733 3.54263,0.392038 0.25216,-0.252164 -2.79737,-5.117306 -5.30686,-8.466421 -4.10379,-5.476848 -12.34802,-13.307417 -17.90355,-17.005217 -5.45237,-3.62914 -12.24202,-6.79238 -20.94856,-9.75973 -6.11641,-2.08459 -16.99273,-5.12875 -17.28391,-4.83756 -0.0591,0.0591 0.19562,0.93649 0.566,1.9498 0.99154,2.71276 1.01346,6.28857 0.051,8.32467 -1.20363,2.54639 -4.53833,6.00984 -8.13967,8.45395 -2.42138,1.643308 -5.44792,3.036953 -10.33968,4.76115 -10.33587,3.643085 -18.915,8.955543 -23.94745,14.828978 -2.08363,2.431838 -4.16711,5.766046 -5.42213,8.6771 -1.09876,2.548597 -1.33028,3.383592 -0.9221,3.325622 6.03316,-0.856805 27.18093,-1.016246 35.85104,-0.270293 11.52812,0.991852 21.94606,2.662656 32.54375,5.21929 5.55536,1.340199 11.9405,3.139414 12.36927,3.485436 0.46598,0.376033 0.41074,1.106982 -0.13229,1.750636 l -0.46302,0.548823 -2.77812,-0.799327 c -9.30339,-2.67679 -20.93967,-4.792504 -32.14688,-5.844966 -5.67586,-0.533017 -24.11459,-0.455753 -30.1625,0.126388 -4.81465,0.463437 -17.1693,2.381486 -18.38854,2.854807 -0.93765,0.364003 -3.31416,3.65805 -4.661,6.460532 -1.69679,3.530664 -2.50503,6.582984 -2.67607,10.106166 -0.1436,2.957726 -0.14283,2.96264 0.48777,3.103329 0.34737,0.0775 3.19144,0.499224 6.32013,0.937157 15.24003,2.133201 30.09127,3.540691 44.71459,4.237718 3.27422,0.156067 6.72703,0.32377 7.67291,0.372673 3.86173,0.199655 37.4881,-0.07637 41.53959,-0.340979 z"
           style="fill:none;stroke:#edffff;stroke-width:0.94120026;stroke-miterlimit:4;stroke-dasharray:none;stroke-opacity:1" />
        <path
           inkscape:connector-curvature="0"
           id="path5488"
           d="m -446.53903,52.772142 c -0.50932,-0.06733 -1.03915,-0.232987 -1.17739,-0.368133 -0.13825,-0.135144 -0.45188,-0.245719 -0.69697,-0.245719 -0.24509,0 -1.43314,-0.494276 -2.64013,-1.098389 -2.84557,-1.424254 -5.07657,-3.637891 -6.39727,-6.347478 -0.82139,-1.685182 -1.09617,-2.617354 -1.67416,-5.679527 -0.0723,-0.383236 -0.49978,-0.704951 -1.36644,-1.028468 -2.44618,-0.913132 -6.08775,-2.867996 -11.9768,-6.429372 -7.80795,-4.72182 -10.80514,-6.010651 -12.80851,-5.507834 -1.17004,0.293659 -2.23326,1.454505 -2.82923,3.088995 -0.42012,1.15221 -0.70432,1.570823 -1.06647,1.570823 -0.7801,0 -0.61738,-1.269212 0.43156,-3.365905 1.64036,-3.278886 4.36545,-5.748988 8.37741,-7.593531 6.56421,-3.01797 16.02987,-3.814564 23.72498,-1.996604 3.08926,0.729835 3.14615,0.720098 3.50146,-0.599424 1.03933,-3.859795 4.20051,-7.5429164 7.91472,-9.2215309 0.73714,-0.3331448 1.32908,-0.7772374 1.32908,-0.9971193 0,-0.2180511 -0.6134,-1.4172195 -1.36311,-2.6648172 -8.3406,-13.8796872 -12.92439,-29.7063906 -12.92439,-44.6246856 0,-4.003286 0.009,-4.070059 0.59531,-4.199448 0.32742,-0.07231 2.79797,-0.442056 5.4901,-0.821651 2.69214,-0.379592 5.03035,-0.802507 5.19603,-0.93981 0.16568,-0.137301 0.38617,-0.929479 0.48999,-1.760392 0.55283,-4.424741 3.15387,-10.357173 6.21242,-14.169234 2.23189,-2.78175 2.58485,-3.443505 3.83978,-7.199024 3.12296,-9.345851 8.09492,-15.663688 16.80553,-21.354714 3.8236,-2.498127 9.94396,-5.454044 14.68438,-7.092045 7.58901,-2.622295 11.17149,-4.692675 15.00832,-8.673565 2.85374,-2.96088 3.38022,-4.03281 3.38022,-6.88227 0,-2.63498 -0.54009,-4.32562 -2.26696,-7.09627 -0.6763,-1.08509 -1.16148,-2.04105 -1.07817,-2.12436 0.33844,-0.33844 12.38442,2.79061 19.08784,4.95823 10.24499,3.31282 18.32464,6.9817 24.47396,11.11335 3.42483,2.3011 8.48179,6.6611 12.30312,10.607482 5.66691,5.852356 9.22398,10.888594 12.66146,17.926606 1.63461,3.346757 2.14845,4.13767 3.84213,5.913961 1.07534,1.127787 2.13023,2.050521 2.3442,2.050521 0.21398,0 1.00004,-0.549341 1.74682,-1.220756 1.7709,-1.592191 3.58512,-2.624965 5.82317,-3.314938 1.50761,-0.464783 2.27391,-0.537914 4.56757,-0.435904 1.80567,0.08031 2.83765,0.02344 2.99271,-0.164893 0.13016,-0.158107 2.85181,-6.240592 6.04811,-13.516634 9.78142,-22.266425 17.05964,-38.385705 19.77877,-43.804655 1.19361,-2.37873 2.16367,-3.29692 4.32237,-4.09121 0.52811,-0.19432 0.7816,-0.37388 0.56332,-0.39903 -0.21828,-0.0251 -0.002,-0.13927 0.48157,-0.25361 1.05691,-0.25011 2.13563,-0.0503 1.59131,0.2947 -0.27466,0.17411 -0.25547,0.22473 0.0864,0.22788 0.98082,0.009 2.60321,3.0404 2.60321,4.864 0,0.29181 -7.03851,13.90789 -15.64113,30.25794 l -15.64113,29.727371 0.93187,1.510183 c 1.60833,2.60644 2.12555,4.515115 2.24795,8.295426 0.0899,2.776717 0.0137,3.719981 -0.44831,5.546828 -0.86639,3.426111 -2.58449,6.740795 -4.61479,8.903174 -1.28851,1.372333 -0.85211,1.54573 4.79756,1.90628 4.95889,0.316466 7.34705,0.596226 7.64658,0.895755 0.34501,0.345011 -3.65831,13.043154 -6.39378,20.280426 -4.12905,10.924313 -9.15186,21.3113518 -14.15395,29.2699681 -0.87636,1.3943278 -1.59337,2.7495553 -1.59337,3.0116119 0,0.2849033 0.4784,0.7568353 1.18989,1.1737975 2.60841,1.5286245 5.39758,5.2522255 6.20413,8.2826435 0.35262,1.32484 0.40804,1.334394 3.49915,0.603192 3.00835,-0.711626 8.05863,-1.145532 10.93495,-0.939504 10.97336,0.786017 18.32933,4.527709 21.3374,10.8535 0.92891,1.95345 1.00908,3.118577 0.20607,2.994964 -0.39867,-0.06137 -0.6777,-0.465492 -1.01788,-1.474227 -0.80476,-2.386335 -2.17504,-3.403745 -4.25283,-3.157661 -2.12018,0.251102 -4.70394,1.496184 -10.98109,5.291637 -6.01744,3.63842 -9.92501,5.742371 -12.37368,6.662341 -0.86387,0.324556 -1.29479,0.649512 -1.3679,1.03151 -0.40451,2.113758 -1.0005,4.313936 -1.42583,5.263697 -0.74083,1.654252 -2.73655,4.157853 -4.19704,5.265124 -1.37143,1.039751 -4.44201,2.596017 -5.12274,2.596364 -0.22556,1.14e-4 -0.5543,0.144404 -0.73054,0.320643 -0.40021,0.400217 -5.68899,0.419013 -6.18833,0.02199 -0.18917,-0.150408 -0.82019,-0.422389 -1.40227,-0.604403 -2.09919,-0.656405 -4.08686,-1.92993 -5.82957,-3.735055 -0.9684,-1.003083 -1.85419,-1.823796 -1.96842,-1.823796 -0.11423,0 -0.90673,0.421042 -1.76111,0.935651 -3.14827,1.896269 -7.42968,2.570165 -10.94611,1.722927 -3.44215,-0.829336 -6.91915,-3.297142 -8.73125,-6.19701 -0.5129,-0.820767 -1.12103,-1.483423 -1.3631,-1.485286 -0.24038,-0.0019 -1.66913,0.521343 -3.175,1.162653 -5.40564,2.302118 -11.02292,3.868952 -17.34157,4.837099 -3.63881,0.557541 -14.44881,0.6393 -17.94012,0.135684 -8.40623,-1.21258 -15.54782,-3.303738 -23.09928,-6.763798 -1.79053,-0.820417 -3.36453,-1.49167 -3.49777,-1.49167 -0.13324,0 -0.69174,0.922734 -1.24112,2.050521 -3.70767,7.611258 -13.26394,10.415314 -20.54649,6.02888 -0.85438,-0.514609 -1.66434,-0.935651 -1.79991,-0.935651 -0.13557,0 -0.89833,0.704072 -1.69503,1.564603 -0.7967,0.860533 -2.03915,1.943589 -2.76099,2.406795 -2.80975,1.803011 -6.93143,2.840559 -9.78546,2.463287 z m 5.10823,-2.066856 c 0.83339,-0.21707 2.09835,-0.690153 2.81104,-1.051296 1.4669,-0.743336 4.4078,-3.352083 4.65425,-4.128595 0.11223,-0.3536 -0.23747,-1.112245 -1.12297,-2.436178 -1.87406,-2.801953 -2.32383,-4.406355 -2.31586,-8.261135 0.005,-2.618762 0.10936,-3.450508 0.5933,-4.747594 l 0.58673,-1.572593 -0.58774,-0.625621 c -0.892,-0.949489 -3.59972,-2.131456 -5.71308,-2.493856 -4.9501,-0.84885 -10.2279,1.532678 -13.01213,5.871525 -2.52546,3.935589 -2.58769,9.468048 -0.153,13.601162 1.47369,2.50171 4.86325,5.04515 7.80499,5.856653 1.68217,0.464045 4.647,0.458317 6.45447,-0.01246 z m 136.04698,0.03448 c 2.0904,-0.559228 4.0777,-1.696738 5.7484,-3.290313 2.71355,-2.588292 3.99369,-5.631511 3.97352,-9.446054 -0.0458,-8.659662 -8.67461,-14.885913 -16.86567,-12.169672 -1.54198,0.511337 -4.02648,1.936137 -4.20998,2.414318 -0.0697,0.181742 0.13275,1.022226 0.44998,1.867739 0.47396,1.263245 0.57752,2.103305 0.58089,4.712298 0.005,3.736612 -0.49751,5.474374 -2.42764,8.397986 -0.78079,1.182666 -1.12411,1.951265 -1.01923,2.281735 0.25672,0.808855 3.10341,3.357485 4.59358,4.112609 2.81001,1.423937 6.40045,1.861918 9.17615,1.119354 z m -113.24167,-3.605212 c 7.23297,-2.501361 10.68655,-11.086399 7.23691,-17.989746 -4.74295,-9.491485 -18.43177,-9.47233 -23.081,0.0323 -1.88466,3.852894 -1.8998,7.684807 -0.0453,11.471804 1.63743,3.343791 5.34327,6.267688 8.87797,7.004704 1.75091,0.365082 5.19133,0.110384 7.01145,-0.519065 z m 91.38892,0.383003 c 6.53641,-1.540741 10.93046,-8.083159 9.8233,-14.626164 -1.273,-7.523089 -8.65685,-12.371494 -15.9593,-10.479239 -2.41994,0.627068 -4.10096,1.594144 -5.90241,3.395597 -2.7798,2.779794 -3.98097,5.972722 -3.74179,9.946372 0.16524,2.745251 0.86927,4.71255 2.45957,6.872806 3.05838,4.154528 8.29188,6.075987 13.32063,4.890628 z m -37.14933,-1.547945 c 4.1471,-0.618789 7.6474,-1.439847 11.37708,-2.668694 3.51073,-1.156705 8.20448,-3.077736 8.67872,-3.551967 0.17476,-0.174763 0.16114,-0.772364 -0.0405,-1.776347 -0.16712,-0.832143 -0.30385,-2.301552 -0.30385,-3.265352 0,-7.627424 6.66769,-14.275128 14.33803,-14.295051 0.82815,-0.0021 1.5845,-0.131355 1.68077,-0.287118 0.0963,-0.155766 0.34065,-1.0785 0.54308,-2.050521 1.10998,-5.330005 5.69498,-9.9852932 10.99619,-11.1647554 1.45844,-0.3244903 5.79103,-0.2355268 7.40391,0.1520269 0.63752,0.1531885 0.80644,7.938e-4 1.93663,-1.7462235 3.72394,-5.7566216 9.28182,-16.541176 12.33394,-23.932862 3.72304,-9.016523 8.40521,-22.960697 7.91007,-23.557306 -0.19066,-0.229725 -1.4336,-0.08543 -4.93954,0.573436 -16.66309,3.131469 -34.60581,5.153171 -55.24579,6.224842 -8.18536,0.425 -34.09003,0.423532 -42.33334,-0.0024 -22.15829,-1.144937 -42.98064,-3.370009 -62.33876,-6.661523 -1.68966,-0.287298 -3.40417,-0.522359 -3.81003,-0.522359 h -0.73792 l 0.16326,4.696354 c 0.32213,9.266282 2.3103,18.598414 5.88534,27.624751 2.17741,5.4975764 6.14493,13.221473 8.23488,16.0314988 l 0.63954,0.8598959 h 2.65186 c 4.46751,0 7.87111,1.4768195 10.86156,4.7128083 1.75498,1.899095 3.0132,4.299331 3.4241,6.531983 0.43807,2.38034 0.41601,2.3601 2.77468,2.545094 4.12816,0.323778 7.01475,1.640038 9.70282,4.424399 2.84088,2.942632 4.14852,6.263746 4.15622,10.555827 l 0.004,2.179487 1.79502,0.903957 c 8.25968,4.159509 18.54705,7.091556 27.83831,7.93432 2.42593,0.220043 11.86012,-0.08629 14.41979,-0.46822 z m -69.52911,-20.770493 c 1.36623,-1.586468 3.82894,-3.264331 5.89925,-4.019206 0.85298,-0.311013 1.60076,-0.701157 1.66172,-0.866987 0.22219,-0.604364 -0.57649,-3.565789 -1.40354,-5.204158 -1.54923,-3.069024 -4.42265,-5.4086285 -7.91541,-6.44493 -1.84312,-0.5468541 -5.32437,-0.5491718 -7.17999,-0.00479 -4.29134,1.2589643 -7.92536,5.146098 -8.97597,9.601139 -0.38118,1.616348 -0.23355,5.990868 0.21739,6.441805 0.20119,0.201192 0.89726,0.08023 2.40404,-0.417764 2.49415,-0.824325 5.84183,-0.948086 8.30327,-0.306961 1.59015,0.414181 4.52781,1.785114 4.81261,2.245923 0.35432,0.573302 1.10527,0.219988 2.17663,-1.024083 z m 116.89318,1.024083 c 0.2581,-0.417603 3.00732,-1.737971 4.60843,-2.213287 2.27617,-0.675722 5.97383,-0.572072 8.37756,0.234833 1.08375,0.363802 2.08141,0.661459 2.21703,0.661459 0.40976,0 0.79758,-1.870612 0.79914,-3.854583 0.003,-4.398983 -2.26354,-8.448677 -6.14245,-10.972583 -2.20813,-1.4367745 -4.35086,-1.9420784 -7.57668,-1.7867441 -2.32313,0.1118684 -2.86101,0.236175 -4.57628,1.057611 -2.29459,1.0988671 -4.0561,2.5912521 -5.32278,4.5095581 -1.33936,2.028381 -2.54,5.747753 -2.09031,6.475376 0.10147,0.164179 0.86585,0.553434 1.69861,0.865015 2.05439,0.768644 4.48397,2.434974 5.8311,3.999262 1.07136,1.244071 1.82231,1.597385 2.17663,1.024083 z m -29.5047,-63.222161 c 11.08714,-0.606243 21.11584,-1.468866 30.95625,-2.662714 7.51996,-0.912328 14.57558,-2.040657 14.93224,-2.387946 0.31612,-0.307817 -0.34842,-2.435958 -1.89517,-6.069174 -3.02892,-7.114768 -8.34016,-14.914309 -14.66689,-21.538303 l -2.47122,-2.587329 -2.51354,-0.515824 c -17.45671,-3.582429 -34.14325,-4.63787 -42.69687,-2.70062 -1.52413,0.345188 -1.85564,0.353695 -2.04647,0.05252 -0.76541,-1.208003 0.0589,-1.585082 6.89502,-3.154281 11.66846,-2.678414 23.03434,-2.927712 34.511,-0.756954 1.66668,0.315246 1.74982,0.310478 1.74982,-0.100349 0,-0.645292 -3.19071,-5.744456 -5.58315,-8.922607 -3.93526,-5.227632 -10.38812,-11.572002 -16.07536,-15.80508 -6.90409,-5.1388 -17.43242,-9.78268 -30.99357,-13.67078 -6.88488,-1.97396 -9.73319,-2.67623 -9.95495,-2.45447 -0.10531,0.10531 0.14191,0.99423 0.54937,1.97538 0.56076,1.35028 0.77331,2.37189 0.87444,4.20286 0.2095,3.79323 -0.61627,5.54804 -4.35138,9.24697 -3.56258,3.52807 -7.44837,5.735393 -14.36957,8.162646 -6.83467,2.396908 -10.9415,4.40934 -16.02111,7.850685 -6.95682,4.713121 -11.33334,9.982282 -14.24701,17.152861 -1.07924,2.65602 -1.03411,2.761334 1.09781,2.561899 8.55479,-0.800272 23.19838,-1.011541 31.28698,-0.451392 16.29627,1.128543 31.54797,3.840173 46.36823,8.243901 1.56099,0.463836 1.78594,0.610613 1.78594,1.165317 0,0.349052 -0.11679,0.706816 -0.25953,0.795034 -0.14273,0.08821 -1.77984,-0.256689 -3.63802,-0.766451 -18.9583,-5.20093 -38.72388,-7.130899 -58.41183,-5.703501 -5.86203,0.425006 -8.77268,0.784016 -15.34583,1.892819 -7.15626,1.207166 -6.86164,1.074208 -9.00933,4.06586 -2.89559,4.033467 -4.88537,9.823698 -4.9679,14.456547 -0.0254,1.426636 0.0717,2.679661 0.21889,2.823269 0.33752,0.329377 11.38305,1.897819 20.63824,2.930588 13.17643,1.470335 26.33414,2.438408 39.68677,2.919944 7.65948,0.276225 31.16536,0.120632 37.9677,-0.251322 z"
           style="fill:none;stroke:#edffff;stroke-width:0.94120026;stroke-miterlimit:4;stroke-dasharray:none;stroke-opacity:1" />
        <path
           inkscape:connector-curvature="0"
           id="path5486"
           d="m -446.53903,52.772142 c -0.50932,-0.06733 -1.03915,-0.232987 -1.17739,-0.368133 -0.13825,-0.135144 -0.45188,-0.245719 -0.69697,-0.245719 -0.24509,0 -1.43314,-0.494276 -2.64013,-1.098389 -2.84557,-1.424254 -5.07657,-3.637891 -6.39727,-6.347478 -0.82139,-1.685182 -1.09617,-2.617354 -1.67416,-5.679527 -0.0723,-0.383236 -0.49978,-0.704951 -1.36644,-1.028468 -2.44618,-0.913132 -6.08775,-2.867996 -11.9768,-6.429372 -7.80795,-4.72182 -10.80514,-6.010651 -12.80851,-5.507834 -1.17004,0.293659 -2.23326,1.454505 -2.82923,3.088995 -0.42012,1.15221 -0.70432,1.570823 -1.06647,1.570823 -0.7801,0 -0.61738,-1.269212 0.43156,-3.365905 1.64036,-3.278886 4.36545,-5.748988 8.37741,-7.593531 6.56421,-3.01797 16.02987,-3.814564 23.72498,-1.996604 3.08926,0.729835 3.14615,0.720098 3.50146,-0.599424 1.03933,-3.859795 4.20051,-7.5429164 7.91472,-9.2215309 0.73714,-0.3331448 1.32908,-0.7772374 1.32908,-0.9971193 0,-0.2180511 -0.6134,-1.4172195 -1.36311,-2.6648172 -8.3406,-13.8796872 -12.92439,-29.7063906 -12.92439,-44.6246856 0,-4.003286 0.009,-4.070059 0.59531,-4.199448 0.32742,-0.07231 2.79797,-0.442056 5.4901,-0.821651 2.69214,-0.379592 5.03035,-0.802507 5.19603,-0.93981 0.16568,-0.137301 0.38617,-0.929479 0.48999,-1.760392 0.55283,-4.424741 3.15387,-10.357173 6.21242,-14.169234 2.23189,-2.78175 2.58485,-3.443505 3.83978,-7.199024 3.12296,-9.345851 8.09492,-15.663688 16.80553,-21.354714 3.8236,-2.498127 9.94396,-5.454044 14.68438,-7.092045 7.58901,-2.622295 11.17149,-4.692675 15.00832,-8.673565 2.85374,-2.96088 3.38022,-4.03281 3.38022,-6.88227 0,-2.63498 -0.54009,-4.32562 -2.26696,-7.09627 -0.6763,-1.08509 -1.16148,-2.04105 -1.07817,-2.12436 0.33844,-0.33844 12.38442,2.79061 19.08784,4.95823 10.24499,3.31282 18.32464,6.9817 24.47396,11.11335 3.42483,2.3011 8.48179,6.6611 12.30312,10.607482 5.66691,5.852356 9.22398,10.888594 12.66146,17.926606 1.63461,3.346757 2.14845,4.13767 3.84213,5.913961 1.07534,1.127787 2.13023,2.050521 2.3442,2.050521 0.21398,0 1.00004,-0.549341 1.74682,-1.220756 1.7709,-1.592191 3.58512,-2.624965 5.82317,-3.314938 1.50761,-0.464783 2.27391,-0.537914 4.56757,-0.435904 1.80567,0.08031 2.83765,0.02344 2.99271,-0.164893 0.13016,-0.158107 2.85181,-6.240592 6.04811,-13.516634 9.78142,-22.266425 17.05964,-38.385705 19.77877,-43.804655 1.19361,-2.37873 2.16367,-3.29692 4.32237,-4.09121 0.52811,-0.19432 0.7816,-0.37388 0.56332,-0.39903 -0.21828,-0.0251 -0.002,-0.13927 0.48157,-0.25361 1.05691,-0.25011 2.13563,-0.0503 1.59131,0.2947 -0.27466,0.17411 -0.25547,0.22473 0.0864,0.22788 0.98082,0.009 2.60321,3.0404 2.60321,4.864 0,0.29181 -7.03851,13.90789 -15.64113,30.25794 l -15.64113,29.727371 0.93187,1.510183 c 1.60833,2.60644 2.12555,4.515115 2.24795,8.295426 0.0899,2.776717 0.0137,3.719981 -0.44831,5.546828 -0.86639,3.426111 -2.58449,6.740795 -4.61479,8.903174 -1.28851,1.372333 -0.85211,1.54573 4.79756,1.90628 4.95889,0.316466 7.34705,0.596226 7.64658,0.895755 0.34501,0.345011 -3.65831,13.043154 -6.39378,20.280426 -4.12905,10.924313 -9.15186,21.3113518 -14.15395,29.2699681 -0.87636,1.3943278 -1.59337,2.7495553 -1.59337,3.0116119 0,0.2849033 0.4784,0.7568353 1.18989,1.1737975 2.60841,1.5286245 5.39758,5.2522255 6.20413,8.2826435 0.35262,1.32484 0.40804,1.334394 3.49915,0.603192 3.00835,-0.711626 8.05863,-1.145532 10.93495,-0.939504 10.97336,0.786017 18.32933,4.527709 21.3374,10.8535 0.92891,1.95345 1.00908,3.118577 0.20607,2.994964 -0.39867,-0.06137 -0.6777,-0.465492 -1.01788,-1.474227 -0.80476,-2.386335 -2.17504,-3.403745 -4.25283,-3.157661 -2.12018,0.251102 -4.70394,1.496184 -10.98109,5.291637 -6.01744,3.63842 -9.92501,5.742371 -12.37368,6.662341 -0.86387,0.324556 -1.29479,0.649512 -1.3679,1.03151 -0.40451,2.113758 -1.0005,4.313936 -1.42583,5.263697 -0.74083,1.654252 -2.73655,4.157853 -4.19704,5.265124 -1.37143,1.039751 -4.44201,2.596017 -5.12274,2.596364 -0.22556,1.14e-4 -0.5543,0.144404 -0.73054,0.320643 -0.40021,0.400217 -5.68899,0.419013 -6.18833,0.02199 -0.18917,-0.150408 -0.82019,-0.422389 -1.40227,-0.604403 -2.09919,-0.656405 -4.08686,-1.92993 -5.82957,-3.735055 -0.9684,-1.003083 -1.85419,-1.823796 -1.96842,-1.823796 -0.11423,0 -0.90673,0.421042 -1.76111,0.935651 -3.14827,1.896269 -7.42968,2.570165 -10.94611,1.722927 -3.44215,-0.829336 -6.91915,-3.297142 -8.73125,-6.19701 -0.5129,-0.820767 -1.12103,-1.483423 -1.3631,-1.485286 -0.24038,-0.0019 -1.66913,0.521343 -3.175,1.162653 -5.40564,2.302118 -11.02292,3.868952 -17.34157,4.837099 -3.63881,0.557541 -14.44881,0.6393 -17.94012,0.135684 -8.40623,-1.21258 -15.54782,-3.303738 -23.09928,-6.763798 -1.79053,-0.820417 -3.36453,-1.49167 -3.49777,-1.49167 -0.13324,0 -0.69174,0.922734 -1.24112,2.050521 -3.70767,7.611258 -13.26394,10.415314 -20.54649,6.02888 -0.85438,-0.514609 -1.66434,-0.935651 -1.79991,-0.935651 -0.13557,0 -0.89833,0.704072 -1.69503,1.564603 -0.7967,0.860533 -2.03915,1.943589 -2.76099,2.406795 -2.80975,1.803011 -6.93143,2.840559 -9.78546,2.463287 z m 5.10823,-2.066856 c 0.83339,-0.21707 2.09835,-0.690153 2.81104,-1.051296 1.4669,-0.743336 4.4078,-3.352083 4.65425,-4.128595 0.11223,-0.3536 -0.23747,-1.112245 -1.12297,-2.436178 -1.87406,-2.801953 -2.32383,-4.406355 -2.31586,-8.261135 0.005,-2.618762 0.10936,-3.450508 0.5933,-4.747594 l 0.58673,-1.572593 -0.58774,-0.625621 c -0.892,-0.949489 -3.59972,-2.131456 -5.71308,-2.493856 -4.9501,-0.84885 -10.2279,1.532678 -13.01213,5.871525 -2.52546,3.935589 -2.58769,9.468048 -0.153,13.601162 1.47369,2.50171 4.86325,5.04515 7.80499,5.856653 1.68217,0.464045 4.647,0.458317 6.45447,-0.01246 z m 136.04698,0.03448 c 2.0904,-0.559228 4.0777,-1.696738 5.7484,-3.290313 2.71355,-2.588292 3.99369,-5.631511 3.97352,-9.446054 -0.0458,-8.659662 -8.67461,-14.885913 -16.86567,-12.169672 -1.54198,0.511337 -4.02648,1.936137 -4.20998,2.414318 -0.0697,0.181742 0.13275,1.022226 0.44998,1.867739 0.47396,1.263245 0.57752,2.103305 0.58089,4.712298 0.005,3.736612 -0.49751,5.474374 -2.42764,8.397986 -0.78079,1.182666 -1.12411,1.951265 -1.01923,2.281735 0.25672,0.808855 3.10341,3.357485 4.59358,4.112609 2.81001,1.423937 6.40045,1.861918 9.17615,1.119354 z m -113.24167,-3.605212 c 7.23297,-2.501361 10.68655,-11.086399 7.23691,-17.989746 -4.74295,-9.491485 -18.43177,-9.47233 -23.081,0.0323 -1.88466,3.852894 -1.8998,7.684807 -0.0453,11.471804 1.63743,3.343791 5.34327,6.267688 8.87797,7.004704 1.75091,0.365082 5.19133,0.110384 7.01145,-0.519065 z m 91.38892,0.383003 c 6.53641,-1.540741 10.93046,-8.083159 9.8233,-14.626164 -1.273,-7.523089 -8.65685,-12.371494 -15.9593,-10.479239 -2.41994,0.627068 -4.10096,1.594144 -5.90241,3.395597 -2.7798,2.779794 -3.98097,5.972722 -3.74179,9.946372 0.16524,2.745251 0.86927,4.71255 2.45957,6.872806 3.05838,4.154528 8.29188,6.075987 13.32063,4.890628 z m -37.14933,-1.547945 c 4.1471,-0.618789 7.6474,-1.439847 11.37708,-2.668694 3.51073,-1.156705 8.20448,-3.077736 8.67872,-3.551967 0.17476,-0.174763 0.16114,-0.772364 -0.0405,-1.776347 -0.16712,-0.832143 -0.30385,-2.301552 -0.30385,-3.265352 0,-7.627424 6.66769,-14.275128 14.33803,-14.295051 0.82815,-0.0021 1.5845,-0.131355 1.68077,-0.287118 0.0963,-0.155766 0.34065,-1.0785 0.54308,-2.050521 1.10998,-5.330005 5.69498,-9.9852932 10.99619,-11.1647554 1.45844,-0.3244903 5.79103,-0.2355268 7.40391,0.1520269 0.63752,0.1531885 0.80644,7.938e-4 1.93663,-1.7462235 3.72394,-5.7566216 9.28182,-16.541176 12.33394,-23.932862 3.72304,-9.016523 8.40521,-22.960697 7.91007,-23.557306 -0.19066,-0.229725 -1.4336,-0.08543 -4.93954,0.573436 -16.66309,3.131469 -34.60581,5.153171 -55.24579,6.224842 -8.18536,0.425 -34.09003,0.423532 -42.33334,-0.0024 -22.15829,-1.144937 -42.98064,-3.370009 -62.33876,-6.661523 -1.68966,-0.287298 -3.40417,-0.522359 -3.81003,-0.522359 h -0.73792 l 0.16326,4.696354 c 0.32213,9.266282 2.3103,18.598414 5.88534,27.624751 2.17741,5.4975764 6.14493,13.221473 8.23488,16.0314988 l 0.63954,0.8598959 h 2.65186 c 4.46751,0 7.87111,1.4768195 10.86156,4.7128083 1.75498,1.899095 3.0132,4.299331 3.4241,6.531983 0.43807,2.38034 0.41601,2.3601 2.77468,2.545094 4.12816,0.323778 7.01475,1.640038 9.70282,4.424399 2.84088,2.942632 4.14852,6.263746 4.15622,10.555827 l 0.004,2.179487 1.79502,0.903957 c 8.25968,4.159509 18.54705,7.091556 27.83831,7.93432 2.42593,0.220043 11.86012,-0.08629 14.41979,-0.46822 z M -458.90411,34.57827 c 0.61962,-2.365449 1.75826,-4.480719 3.40881,-6.332598 0.72552,-0.814017 1.24652,-1.597517 1.15777,-1.741112 -0.37738,-0.610621 -5.56303,-1.871327 -9.92858,-2.413778 -4.00904,-0.498152 -3.76731,-0.809723 0.52917,-0.682069 2.47428,0.07351 4.89751,0.32409 6.82483,0.705731 1.64361,0.325458 3.03903,0.541091 3.10094,0.479184 0.0619,-0.06191 0.0268,-1.057331 -0.078,-2.212049 -0.2269,-2.500339 -0.15442,-2.444313 -4.29156,-3.317605 -2.21087,-0.466683 -3.66954,-0.587963 -7.14375,-0.593966 -5.44273,-0.0094 -9.19476,0.635757 -13.22917,2.274755 -2.1225,0.862277 -5.55625,2.928612 -5.55625,3.343598 0,0.138139 0.68461,0.393184 1.52135,0.566767 1.88444,0.390927 6.61235,2.82095 11.84011,6.085514 4.34917,2.715911 10.35762,5.861008 10.9738,5.744189 0.23934,-0.04538 0.57624,-0.783249 0.87049,-1.906561 z m 168.10083,0.911601 c 1.90797,-0.858036 4.06954,-2.093749 9.61865,-5.498719 4.93706,-3.029419 8.78093,-4.945775 10.73334,-5.35109 0.79622,-0.165295 1.44768,-0.405439 1.44768,-0.533654 0,-0.360063 -2.15058,-1.755873 -4.28809,-2.783136 -4.20184,-2.019358 -8.51632,-2.86921 -14.49733,-2.855632 -3.4674,0.0079 -4.93722,0.130567 -7.14375,0.596334 -4.12766,0.871291 -4.06161,0.820666 -4.30765,3.3016 -0.11363,1.145826 -0.14871,2.141212 -0.078,2.211967 0.0708,0.07076 1.47342,-0.137639 3.11703,-0.463097 1.92732,-0.381641 4.35055,-0.63222 6.82483,-0.705731 4.29648,-0.127654 4.53821,0.183917 0.52917,0.682069 -4.36555,0.542451 -9.5512,1.803157 -9.92858,2.413778 -0.0888,0.143595 0.45001,0.944036 1.19725,1.778759 1.38851,1.55108 2.97294,4.488858 3.31574,6.147888 0.10524,0.509323 0.29533,1.201925 0.42242,1.539118 0.26576,0.705083 0.47445,0.672068 3.03725,-0.480454 z M -433.91501,25.199119 c 1.36623,-1.586468 3.82894,-3.264331 5.89925,-4.019206 0.85298,-0.311013 1.60076,-0.701157 1.66172,-0.866987 0.22219,-0.604364 -0.57649,-3.565789 -1.40354,-5.204158 -1.54923,-3.069024 -4.42265,-5.4086285 -7.91541,-6.44493 -1.84312,-0.5468541 -5.32437,-0.5491718 -7.17999,-0.00479 -4.29134,1.2589643 -7.92536,5.146098 -8.97597,9.601139 -0.38118,1.616348 -0.23355,5.990868 0.21739,6.441805 0.20119,0.201192 0.89726,0.08023 2.40404,-0.417764 2.49415,-0.824325 5.84183,-0.948086 8.30327,-0.306961 1.59015,0.414181 4.52781,1.785114 4.81261,2.245923 0.35432,0.573302 1.10527,0.219988 2.17663,-1.024083 z m 116.89318,1.024083 c 0.2581,-0.417603 3.00732,-1.737971 4.60843,-2.213287 2.27617,-0.675722 5.97383,-0.572072 8.37756,0.234833 1.08375,0.363802 2.08141,0.661459 2.21703,0.661459 0.40976,0 0.79758,-1.870612 0.79914,-3.854583 0.003,-4.398983 -2.26354,-8.448677 -6.14245,-10.972583 -2.20813,-1.4367745 -4.35086,-1.9420784 -7.57668,-1.7867441 -2.32313,0.1118684 -2.86101,0.236175 -4.57628,1.057611 -2.29459,1.0988671 -4.0561,2.5912521 -5.32278,4.5095581 -1.33936,2.028381 -2.54,5.747753 -2.09031,6.475376 0.10147,0.164179 0.86585,0.553434 1.69861,0.865015 2.05439,0.768644 4.48397,2.434974 5.8311,3.999262 1.07136,1.244071 1.82231,1.597385 2.17663,1.024083 z m -29.5047,-63.222161 c 11.08714,-0.606243 21.11584,-1.468866 30.95625,-2.662714 7.51996,-0.912328 14.57558,-2.040657 14.93224,-2.387946 0.31612,-0.307817 -0.34842,-2.435958 -1.89517,-6.069174 -3.02892,-7.114768 -8.34016,-14.914309 -14.66689,-21.538303 l -2.47122,-2.587329 -2.51354,-0.515824 c -17.45671,-3.582429 -34.14325,-4.63787 -42.69687,-2.70062 -1.52413,0.345188 -1.85564,0.353695 -2.04647,0.05252 -0.76541,-1.208003 0.0589,-1.585082 6.89502,-3.154281 11.66846,-2.678414 23.03434,-2.927712 34.511,-0.756954 1.66668,0.315246 1.74982,0.310478 1.74982,-0.100349 0,-0.645292 -3.19071,-5.744456 -5.58315,-8.922607 -3.93526,-5.227632 -10.38812,-11.572002 -16.07536,-15.80508 -6.90409,-5.1388 -17.43242,-9.78268 -30.99357,-13.67078 -6.88488,-1.97396 -9.73319,-2.67623 -9.95495,-2.45447 -0.10531,0.10531 0.14191,0.99423 0.54937,1.97538 0.56076,1.35028 0.77331,2.37189 0.87444,4.20286 0.2095,3.79323 -0.61627,5.54804 -4.35138,9.24697 -3.56258,3.52807 -7.44837,5.735393 -14.36957,8.162646 -6.83467,2.396908 -10.9415,4.40934 -16.02111,7.850685 -6.95682,4.713121 -11.33334,9.982282 -14.24701,17.152861 -1.07924,2.65602 -1.03411,2.761334 1.09781,2.561899 8.55479,-0.800272 23.19838,-1.011541 31.28698,-0.451392 16.29627,1.128543 31.54797,3.840173 46.36823,8.243901 1.56099,0.463836 1.78594,0.610613 1.78594,1.165317 0,0.349052 -0.11679,0.706816 -0.25953,0.795034 -0.14273,0.08821 -1.77984,-0.256689 -3.63802,-0.766451 -18.9583,-5.20093 -38.72388,-7.130899 -58.41183,-5.703501 -5.86203,0.425006 -8.77268,0.784016 -15.34583,1.892819 -7.15626,1.207166 -6.86164,1.074208 -9.00933,4.06586 -2.89559,4.033467 -4.88537,9.823698 -4.9679,14.456547 -0.0254,1.426636 0.0717,2.679661 0.21889,2.823269 0.33752,0.329377 11.38305,1.897819 20.63824,2.930588 13.17643,1.470335 26.33414,2.438408 39.68677,2.919944 7.65948,0.276225 31.16536,0.120632 37.9677,-0.251322 z"
           style="fill:none;stroke:#edffff;stroke-width:0.94120026;stroke-miterlimit:4;stroke-dasharray:none;stroke-opacity:1" />
      </g>
      <path
         transform="scale(0.26458333)"
         inkscape:connector-curvature="0"
         id="path5500"
         d="m -782.58698,90.682749 c -3.50017,-0.237248 -18.45548,-1.096567 -33.23401,-1.909584 -50.26429,-2.765197 -112.70767,-8.923673 -157.68482,-15.551654 -10.50053,-1.54739 -19.88738,-2.816364 -20.85965,-2.819942 -1.19172,-0.0044 -1.76776,-2.456489 -1.76776,-7.524959 0,-17.873666 6.95433,-39.137215 18.1234,-55.4140638 8.11303,-11.8232355 6.84603,-11.3698811 49.75885,-17.8048642 26.41228,-3.960646 33.14539,-4.416688 75.68616,-5.126255 70.49337,-1.175806 114.2083,3.80316 179.27759,20.4190799 18.13346,4.6305029 21.08955,5.0581041 22.25221,3.2188491 3.24448,-5.132478 1.61417,-6.8750437 -9.80799,-10.4832964 -14.37523,-4.5411388 -53.13659,-13.9898676 -72.2465,-17.6113006 -62.15855,-11.779367 -124.80618,-16.089861 -190.13656,-13.082381 -17.84847,0.821659 -32.73268,1.212986 -33.07604,0.869629 -1.07586,-1.075863 10.6072,-24.204209 16.93352,-33.522405 17.45151,-25.704735 51.56911,-48.792952 96.67753,-65.424062 30.46472,-11.23209 47.1788,-21.24459 60.85331,-36.45394 8.16662,-9.08325 11.56384,-15.64636 12.7578,-24.64684 0.83943,-6.32792 -1.05312,-17.79185 -4.32026,-26.16965 -1.09359,-2.80418 -2.34224,-3.03317 25.86547,4.74333 42.33747,11.67189 78.78941,25.73507 104.35872,40.26168 24.21619,13.75785 62.21533,47.66046 80.09334,71.45881 8.64914,11.51333 21.13513,31.113029 20.33213,31.916047 -0.28464,0.284625 -7.74826,-0.502399 -16.58584,-1.748958 -45.08651,-6.359577 -87.27004,-3.480238 -133.69913,9.125935 -11.4577,3.11093 -13.91179,4.999994 -12.22067,9.406967 0.69978,1.823614 2.31545,2.135603 8.08734,1.561716 43.13007,-4.288377 43.68002,-4.309562 68.05849,-2.622956 25.16642,1.741137 58.3226,6.127886 87.26986,11.54629 l 16.59363,3.106037 9.24143,9.796399 c 26.74453,28.3506116 48.51294,62.298554 59.87884,93.381327 l 2.93699,8.031913 -3.83189,0.797574 c -19.64947,4.089863 -67.69856,10.01218 -116.26188,14.329901 -38.91737,3.460114 -177.83216,6.078827 -209.30361,3.945627 z"
         style="fill:none;fill-opacity:1;stroke:#edffff;stroke-width:3.55729246;stroke-linecap:round;stroke-linejoin:miter;stroke-miterlimit:4;stroke-dasharray:none;stroke-dashoffset:0;stroke-opacity:1;paint-order:markers fill stroke" />
      <path
         transform="scale(0.26458333)"
         inkscape:connector-curvature="0"
         id="path5502"
         d="m -761.82001,403.35135 c -28.20427,-4.28516 -58.20185,-13.40244 -87.58856,-26.62112 l -8.13172,-3.65781 v -8.95354 c 0,-29.44977 -22.5028,-53.94907 -52.42528,-57.07659 l -8.38537,-0.87644 -1.43858,-5.80898 c -4.30624,-17.38865 -15.72483,-31.8709 -31.25429,-39.63997 -7.97899,-3.99173 -11.94469,-5.02047 -22.55229,-5.85029 l -12.87086,-1.00686 -4.13112,-6.52599 c -7.04735,-11.13276 -20.55712,-38.35276 -26.75262,-53.90213 -12.8488,-32.24744 -20.6255,-67.83412 -22.1923,-101.552445 l -0.8745,-18.82095 3.4038,0.773082 c 1.8721,0.425195 9.6435,1.741876 17.2698,2.925958 8.2373,1.278935 15.4134,3.23284 17.6777,4.813273 8.40493,5.866334 121.95633,17.896088 215.94369,22.877302 48.61532,2.57655 179.13085,-0.37257 228.39549,-5.160812 65.67433,-6.383164 118.98653,-14.308259 122.32947,-18.184813 1.41328,-1.638879 28.85251,-7.074813 29.98671,-5.940612 1.01923,1.019233 -14.94184,48.423047 -24.58454,73.015187 -10.56397,26.94171 -31.69479,70.41632 -44.67954,91.92388 l -8.96494,14.84924 -16.19539,0.0602 c -15.14542,0.0563 -16.81267,0.34902 -25.7168,4.51576 -16.32855,7.64106 -30.41285,25.41047 -33.08336,41.73955 -0.81508,4.98389 -1.17585,5.30538 -5.98987,5.33788 -14.43487,0.0974 -29.90205,7.17217 -40.34848,18.45556 -12.47137,13.47057 -17.50757,28.42296 -15.68521,46.56912 l 0.94411,9.4012 -8.2505,3.64665 c -13.68357,6.04804 -34.14039,12.30504 -52.09113,15.93281 -22.45392,4.53784 -61.35874,5.84288 -81.76352,2.74272 z"
         style="fill:none;fill-opacity:1;stroke:#edffff;stroke-width:3.55729246;stroke-linecap:round;stroke-linejoin:miter;stroke-miterlimit:4;stroke-dasharray:none;stroke-dashoffset:0;stroke-opacity:1;paint-order:markers fill stroke" />
      <path
         transform="scale(0.26458333)"
         inkscape:connector-curvature="0"
         id="path5504"
         d="m -972.53035,325.20641 c -12.07844,-6.23686 -26.76359,-7.65837 -39.84125,-3.8566 -10.2595,2.98253 -10.9744,2.19638 -10.2268,-11.24556 0.6887,-12.38203 4.4367,-21.07215 13.0681,-30.2999 10.10668,-10.80482 15.48297,-12.73701 31.51887,-11.32755 15.39766,1.35335 23.54073,4.72668 32.12,13.30596 6.07228,6.07227 11.3231,15.47303 12.81832,22.94915 0.84935,4.24673 0.53607,4.63959 -6.57202,8.24153 -4.10514,2.08023 -10.75997,6.89954 -14.78852,10.70957 -4.02855,3.81004 -7.58134,6.83041 -7.89509,6.71195 -0.31376,-0.11847 -4.90448,-2.45331 -10.20161,-5.18855 z"
         style="fill:none;fill-opacity:1;stroke:#edffff;stroke-width:3.55729246;stroke-linecap:round;stroke-linejoin:miter;stroke-miterlimit:4;stroke-dasharray:none;stroke-dashoffset:0;stroke-opacity:1;paint-order:markers fill stroke" />
      <path
         transform="scale(0.26458333)"
         inkscape:connector-curvature="0"
         id="path5506"
         d="m -1007.1215,421.82421 c -10.7303,-2.9873 -15.5263,-5.80754 -23.1014,-13.58463 -17.2594,-17.71954 -16.9544,-46.26922 0.686,-64.22666 6.3501,-6.46426 8.1974,-7.51721 15.0189,-8.56067 4.278,-0.65439 12.5511,-1.18499 18.38478,-1.1791 9.10133,0.009 11.82964,0.64025 19.22456,4.44677 l 8.61796,4.43607 -1.94315,8.92997 c -3.29965,15.16399 -0.47102,30.31221 8.17663,43.7884 4.95133,7.71598 4.49276,9.73103 -3.62325,15.92142 -12.92149,9.85569 -28.51074,13.62818 -41.44103,10.02843 z"
         style="fill:none;fill-opacity:1;stroke:#edffff;stroke-width:3.55729246;stroke-linecap:round;stroke-linejoin:miter;stroke-miterlimit:4;stroke-dasharray:none;stroke-dashoffset:0;stroke-opacity:1;paint-order:markers fill stroke" />
      <path
         transform="scale(0.26458333)"
         inkscape:connector-curvature="0"
         id="path5508"
         d="m -935.422,405.91722 c -6.96316,-3.52691 -8.23217,-4.9427 -13.62659,-15.2028 -8.59066,-16.33931 -9.88275,-23.27456 -7.00724,-37.61121 2.49789,-12.4539 4.77761,-15.49024 18.61247,-24.78977 3.11127,-2.09133 7.38271,-4.9768 9.4921,-6.41214 3.39601,-2.31085 4.98873,-2.44613 13.9072,-1.18126 14.40427,2.04289 22.83906,6.12748 30.92632,14.97623 8.99884,9.84617 11.43531,17.20152 11.43531,34.52152 0,12.82956 -0.25703,14.03579 -4.28729,20.12037 -8.9919,13.5753 -20.64843,19.39278 -38.94619,19.43709 -11.22549,0.0272 -13.78701,-0.45475 -20.50609,-3.85803 z"
         style="fill:none;fill-opacity:1;stroke:#edffff;stroke-width:3.55729246;stroke-linecap:round;stroke-linejoin:miter;stroke-miterlimit:4;stroke-dasharray:none;stroke-dashoffset:0;stroke-opacity:1;paint-order:markers fill stroke" />
      <path
         transform="scale(0.26458333)"
         inkscape:connector-curvature="0"
         id="path5510"
         d="m -572.88654,409.66768 c -9.36278,-1.21276 -18.13366,-6.34457 -26.22509,-15.34419 -6.32739,-7.03758 -6.3613,-7.13131 -7.3499,-20.31738 -1.1033,-14.71598 0.2315,-22.14947 5.66252,-31.53454 6.96954,-12.0437 19.23285,-19.73919 34.51341,-21.65788 5.3757,-0.675 10.41318,-1.6223 11.19439,-2.10512 0.78121,-0.48281 4.16702,0.19073 7.52402,1.49676 21.09252,8.20598 33.62256,30.13621 29.61257,51.82827 -4.82386,26.09462 -26.95645,41.25775 -54.93192,37.63408 z"
         style="fill:none;fill-opacity:1;stroke:#edffff;stroke-width:3.55729246;stroke-linecap:round;stroke-linejoin:miter;stroke-miterlimit:4;stroke-dasharray:none;stroke-dashoffset:0;stroke-opacity:1;paint-order:markers fill stroke" />
      <path
         transform="scale(0.26458333)"
         inkscape:connector-curvature="0"
         id="path5512"
         d="m -491.6345,422.4097 c -7.60193,-1.79099 -15.84233,-6.27387 -22.36534,-12.16702 -5.57988,-5.04108 -5.61329,-5.13115 -2.99348,-8.07048 11.89761,-13.34867 16.53945,-39.14307 10.29704,-57.22005 l -2.61703,-7.5785 7.9665,-3.69537 c 6.51351,-3.02138 10.03,-3.69176 19.28022,-3.67555 23.01996,0.0403 39.50184,13.07345 45.33705,35.85047 6.36158,24.83171 -9.74415,50.00631 -35.93614,56.1712 -9.0015,2.11871 -11.40416,2.16752 -18.96882,0.3853 z"
         style="fill:none;fill-opacity:1;stroke:#edffff;stroke-width:3.55729246;stroke-linecap:round;stroke-linejoin:miter;stroke-miterlimit:4;stroke-dasharray:none;stroke-dashoffset:0;stroke-opacity:1;paint-order:markers fill stroke" />
      <path
         transform="scale(0.26458333)"
         inkscape:connector-curvature="0"
         id="path5514"
         d="m -524.2252,318.72773 c -3.74179,-3.35445 -9.94666,-7.57129 -13.78858,-9.37075 -4.08766,-1.91456 -6.97243,-4.1981 -6.95426,-5.50488 0.0632,-4.54659 5.65651,-14.40795 12.04718,-21.24009 9.71745,-10.38875 16.51299,-13.16484 34.14558,-13.94905 l 14.62928,-0.65063 7.65044,5.0796 c 8.26378,5.48685 15.24297,14.42921 18.52785,23.73956 1.99812,5.66327 2.92959,23.87936 1.22106,23.87936 -0.46365,0 -4.37397,-1.02648 -8.6896,-2.28107 -11.78147,-3.42496 -31.05964,-2.15544 -41.9086,2.75981 -4.56924,2.07015 -8.70581,3.73538 -9.19239,3.70053 -0.48658,-0.0349 -3.94616,-2.80793 -7.68796,-6.16239 z"
         style="fill:none;fill-opacity:1;stroke:#edffff;stroke-width:3.55729246;stroke-linecap:round;stroke-linejoin:miter;stroke-miterlimit:4;stroke-dasharray:none;stroke-dashoffset:0;stroke-opacity:1;paint-order:markers fill stroke" />
      <path
         transform="scale(0.26458333)"
         inkscape:connector-curvature="0"
         id="path5516"
         d="m -1069.5277,362.3709 c -6.5319,-3.50678 -18.6234,-10.39282 -26.87,-15.30231 -22.5335,-13.41491 -29.6696,-17.1585 -39.5779,-20.7624 l -9.0277,-3.28359 3.3665,-2.72604 c 5.6228,-4.55302 18.8331,-10.66224 29.7804,-13.77212 15.164,-4.30776 44.6752,-5.35752 62.1414,-2.21047 l 13.2767,2.39217 0.052,8.53276 0.052,8.53276 -4.2942,-0.85082 c -5.8296,-1.15503 -41.2425,-2.74413 -40.3566,-1.81094 0.3889,0.40968 8.3438,2.06134 17.6776,3.67036 9.3338,1.60902 19.3997,3.6207 22.3686,4.47042 l 5.3981,1.54493 -5.853,6.34971 c -6.4864,7.03694 -12.2688,18.22454 -13.6167,26.34549 -0.4842,2.91682 -1.2763,5.29267 -1.7602,5.27967 -0.484,-0.013 -6.2242,-2.89281 -12.7561,-6.39958 z"
         style="fill:none;fill-opacity:1;stroke:#edffff;stroke-width:3.55729246;stroke-linecap:round;stroke-linejoin:miter;stroke-miterlimit:4;stroke-dasharray:none;stroke-dashoffset:0;stroke-opacity:1;paint-order:markers fill stroke" />
      <path
         transform="scale(0.26458333)"
         inkscape:connector-curvature="0"
         id="path5518"
         d="m -424.13751,360.62201 c -3.08682,-10.61828 -6.79178,-17.6574 -12.78594,-24.29221 l -4.93893,-5.46681 4.64663,-1.47093 c 2.55565,-0.80901 8.46501,-2.18376 13.13191,-3.055 4.66691,-0.87123 12.94006,-2.46413 18.38478,-3.53975 l 9.89949,-1.95569 -19.09188,0.60794 c -10.50054,0.33437 -21.05818,0.9986 -23.46143,1.47608 l -4.36954,0.86813 0.6559,-8.25897 c 0.36075,-4.54244 0.80191,-8.4309 0.98036,-8.64103 1.40406,-1.6533 25.01707,-4.5677 37.00837,-4.5677 26.12771,0 44.91012,4.52012 63.11313,15.18862 l 8.68298,5.08895 -7.01021,2.38636 c -10.16686,3.46091 -22.45834,9.88628 -47.90978,25.04482 -12.38314,7.37523 -25.23586,14.57589 -28.56159,16.00146 l -6.04678,2.59196 z"
         style="fill:none;fill-opacity:1;stroke:#edffff;stroke-width:3.55729246;stroke-linecap:round;stroke-linejoin:miter;stroke-miterlimit:4;stroke-dasharray:none;stroke-dashoffset:0;stroke-opacity:1;paint-order:markers fill stroke" />
      <path
         transform="scale(0.26458333)"
         inkscape:connector-curvature="0"
         id="path5520"
         d="m -441.21443,65.26417 c -9.62529,-27.97982 -29.95289,-62.8279085 -52.44885,-89.914355 l -9.05233,-10.899514 6.08187,-4.480511 c 10.94133,-8.06048 17.56498,-10.277741 32.65469,-10.931121 l 13.84491,-0.599471 2.62033,-5.136565 c 1.44117,-2.825104 17.56081,-38.865545 35.82141,-80.089873 40.13565,-90.60846 59.64846,-132.87733 64.0476,-138.74067 1.8117,-2.41471 6.91679,-6.10568 11.34462,-8.20216 l 8.05061,-3.81179 3.54021,3.25242 c 4.85668,4.46188 9.22537,14.55626 8.00372,18.49355 -1.04344,3.36291 -37.85926,74.35156 -87.35717,168.44298 l -30.41642,57.819103 3.37493,5.1134 c 5.20986,7.893532 7.72193,16.573381 8.62043,29.7858835 1.31046,19.2701585 -3.76192,35.9148305 -16.10555,52.8493585 -3.47997,4.774244 -4.51883,7.257023 -3.47382,8.302028 0.81998,0.819989 10.29196,2.285242 21.04885,3.256142 10.75688,0.9709 17.01239,1.859903 13.90112,1.975571 -3.11127,0.115683 -10.11163,1.177786 -15.55635,2.360252 -5.44473,1.182466 -11.63979,2.521797 -13.76681,2.976297 -2.96717,0.634006 -4.07927,0.210167 -4.778,-1.820955 z"
         style="fill:none;fill-opacity:1;stroke:#edffff;stroke-width:3.55729246;stroke-linecap:round;stroke-linejoin:miter;stroke-miterlimit:4;stroke-dasharray:none;stroke-dashoffset:0;stroke-opacity:1;paint-order:markers fill stroke" />
    </g>
  </g>
</svg>
